<svg width="40" height="33" viewBox="0 0 40 33" fill="none" xmlns="http://www.w3.org/2000/svg">
<path d="M38.8235 30.6343H1.17648C0.526746 30.6343 4.1395e-08 31.164 4.1395e-08 31.8172C4.1395e-08 32.4704 0.526746 33 1.17648 33H38.8235C39.4738 33 40 32.4704 40 31.8172C40 31.164 39.4737 30.6343 38.8235 30.6343ZM38.8235 18.065H1.17648C0.526746 18.065 4.1395e-08 18.5946 4.1395e-08 19.2478C4.1395e-08 19.901 0.526746 20.4307 1.17648 20.4307H38.8235C39.4738 20.4307 40 19.9011 40 19.2478C40 18.5946 39.4737 18.065 38.8235 18.065ZM20 8.04098H38.8235C39.4737 8.04098 40 7.51139 40 6.85814C40 6.20489 39.4737 5.6753 38.8235 5.6753H20C19.3497 5.6753 18.8235 6.20489 18.8235 6.85814C18.8235 7.51139 19.3497 8.04098 20 8.04098ZM0.58824 13.7969C0.770361 13.9026 0.973107 13.9551 1.17648 13.9551C1.37985 13.9551 1.5826 13.9026 1.76472 13.7969L11.7475 8.00232C12.1116 7.79092 12.3357 7.40053 12.3357 6.97772C12.3357 6.55492 12.1116 6.16453 11.7475 5.95313L1.76472 0.158553C1.58589 0.0546851 1.38301 0 1.17648 0C0.969954 0 0.76707 0.0546851 0.58824 0.158553C0.40935 0.262377 0.260805 0.411729 0.157544 0.591588C0.0542826 0.771448 -5.34359e-05 0.975474 4.1395e-08 1.18315V12.7723C-5.47488e-05 12.98 0.0542813 13.184 0.157543 13.3639C0.260805 13.5437 0.409351 13.6931 0.58824 13.7969Z" fill="#F9EED7"/>
</svg>
