<svg width="35" height="35" viewBox="0 0 35 35" fill="none" xmlns="http://www.w3.org/2000/svg">
<path d="M25.585 1.92499C24.7275 1.39999 23.6775 1.73249 23.1525 2.62499C22.82 3.48249 23.1525 4.53249 24.01 5.05749C28.56 7.33249 31.5175 12.04 31.325 17.64C31.325 23.0475 28.525 27.755 23.8175 30.03C22.96 30.3625 22.5925 31.4125 23.1175 32.305C23.6425 33.1625 24.6925 33.53 25.55 33.005C31.3075 30.0475 34.965 24.115 34.965 17.465C34.965 10.815 31.3425 4.88249 25.585 1.92499ZM14.945 3.83249L6.54503 10.4825H3.58752C1.68002 10.4825 0.0875244 12.0575 0.0875244 13.9825V20.965C0.0875244 22.8725 1.66252 24.465 3.58752 24.465H6.54503L14.91 31.115C15.96 31.9725 17.71 31.115 17.71 29.7325V5.24999C17.745 3.69249 16.17 2.97499 14.945 3.83249Z" fill="#F9EED7"/>
<path d="M24.2026 24.9725C26.4776 23.065 27.7026 20.265 27.7026 17.29C27.7026 14.2975 26.4776 11.5325 24.2026 9.60748C23.5026 9.08248 22.4526 9.08248 21.7701 9.79998C21.0701 10.5 21.0701 11.7075 21.7701 12.2325C23.3451 13.615 24.2026 15.365 24.2026 17.465C24.2026 19.565 23.3451 21.315 21.7701 22.6975C21.0701 23.2225 21.0701 24.4475 21.7701 24.7975C22.2601 25.4975 23.5026 25.69 24.2026 24.9725Z" fill="#F9EED7"/>
</svg>
