<svg width="34" height="74" viewBox="0 0 34 74" fill="none" xmlns="http://www.w3.org/2000/svg">
<path fill-rule="evenodd" clip-rule="evenodd" d="M0 73.7603C19.0316 72.2332 34 56.3047 34 36.8801C34 17.4555 19.0316 1.52707 0 0L0 73.7603Z" fill="#ACA499" fill-opacity="0.5"/>
<path d="M18.8679 49C19.1576 49 19.4474 48.8924 19.6684 48.6772C20.1105 48.2469 20.1105 47.5491 19.6684 47.1187L7.73308 35.5L19.6684 23.8813C20.1105 23.4509 20.1105 22.7532 19.6684 22.3228C19.2263 21.8924 18.5096 21.8924 18.0674 22.3228L5.33156 34.7207C4.88948 35.1511 4.88948 35.8489 5.33156 36.2793L18.0674 48.6772C18.2885 48.8924 18.5782 49 18.8679 49V49Z" fill="#FFFDF6"/>
</svg>
