<svg width="34" height="74" viewBox="0 0 34 74" fill="none" xmlns="http://www.w3.org/2000/svg">
<path fill-rule="evenodd" clip-rule="evenodd" d="M0 73.7603C19.0315 72.2332 34 56.3047 34 36.8801C34 17.4555 19.0315 1.52704 0 -1.72162e-05L0 73.7603Z" fill="#ACA499" fill-opacity="0.5"/>
<path d="M7.13208 22C6.84237 22 6.55263 22.1076 6.33156 22.3228C5.88948 22.7531 5.88948 23.4509 6.33156 23.8813L18.2669 35.5L6.33156 47.1187C5.88948 47.5491 5.88948 48.2468 6.33156 48.6772C6.7737 49.1076 7.49045 49.1076 7.93259 48.6772L20.6684 36.2793C21.1105 35.8489 21.1105 35.1511 20.6684 34.7207L7.93259 22.3228C7.71152 22.1076 7.42178 22 7.13208 22V22Z" fill="#FFFDF6"/>
</svg>
