<svg xmlns="http://www.w3.org/2000/svg" xmlns:xlink="http://www.w3.org/1999/xlink" viewBox="0 0 302 302"><defs><style>.cls-1{fill:#fff;}.cls-2{fill:url(#未命名的渐变_39);}.cls-3{fill:url(#未命名的渐变_39-2);}.cls-4{fill:url(#未命名的渐变_39-3);}.cls-5{fill:url(#未命名的渐变_39-4);}</style><linearGradient id="未命名的渐变_39" x1="41.17" y1="145.48" x2="261" y2="145.48" gradientUnits="userSpaceOnUse"><stop offset="0" stop-color="#83580b"/><stop offset="1" stop-color="#ffc76c"/></linearGradient><linearGradient id="未命名的渐变_39-2" x1="61.41" y1="155.76" x2="240.76" y2="155.76" xlink:href="#未命名的渐变_39"/><linearGradient id="未命名的渐变_39-3" x1="81.65" y1="166.03" x2="220.52" y2="166.03" xlink:href="#未命名的渐变_39"/><linearGradient id="未命名的渐变_39-4" x1="101.89" y1="176.31" x2="200.28" y2="176.31" xlink:href="#未命名的渐变_39"/></defs><title>资源 12</title><g id="图层_2" data-name="图层 2"><g id="图层_1-2" data-name="图层 1"><rect class="cls-1" width="302" height="302"/><path class="cls-2" d="M101.05,62.49Q124.11,50,152.49,50a97.75,97.75,0,0,1,98.39,98.47c0,2.14-.13,4.25-.25,6.35h10.12c.11-2.11.25-4.21.25-6.35a110.1,110.1,0,0,0-8.22-42.17,107.57,107.57,0,0,0-22.49-34.68,105,105,0,0,0-34.58-23.26,109.23,109.23,0,0,0-43.22-8.64,119.93,119.93,0,0,0-43.85,8A107.05,107.05,0,0,0,73.22,69.91a100.71,100.71,0,0,0-23.48,34.9,116.8,116.8,0,0,0-8.57,45.1V251.23H51.29V149.91q0-29.11,13.35-52A92.4,92.4,0,0,1,101.05,62.49Z"/><path class="cls-3" d="M111.17,80.26q18.4-9.7,41.32-9.7a77.48,77.48,0,0,1,39.78,10.49,75.78,75.78,0,0,1,28.18,28.33,77.47,77.47,0,0,1,10.19,39.1c0,2.16-.15,4.25-.29,6.35h10.21q.19-3.14.2-6.35a89.64,89.64,0,0,0-25.3-62.37,86.49,86.49,0,0,0-28.11-18.83,88,88,0,0,0-34.86-7q-25.73,0-46.45,11.14A82,82,0,0,0,73.36,103.1q-12,20.55-12,46.81V251.23H71.53V149.91q0-23.55,10.61-41.75A71.76,71.76,0,0,1,111.17,80.26Z"/><path class="cls-4" d="M152.49,91.11q24.73,0,41.32,16.7t16.59,40.67c0,2.17-.11,4.28-.28,6.35h10.12c.14-2.09.28-4.18.28-6.35q0-28.11-19.61-47.88T152.49,80.83q-20.24,0-36.26,8.35a62,62,0,0,0-25.3,24.19q-9.29,15.84-9.28,36.54V251.23H91.77V149.91q0-27,17-42.89T152.49,91.11Z"/><path class="cls-5" d="M152.49,111.66a36.74,36.74,0,0,1,26.57,10.84,35.06,35.06,0,0,1,11.1,26,58.78,58.78,0,0,1-.37,6.35H200q.28-3.08.29-6.35,0-19.69-13.63-33.4t-34.16-13.7q-22.62,0-36.61,12.92t-14,35.61V251.23H112V149.91q0-18.27,11.1-28.26T152.49,111.66Z"/></g></g></svg>