<svg width="24" height="44" viewBox="0 0 24 44" fill="none" xmlns="http://www.w3.org/2000/svg">
<path d="M21.2971 0C21.8312 0 22.3662 0.201094 22.7778 0.60457C23.6118 1.42227 23.6252 2.76117 22.8075 3.59562L5.14302 21.6133C4.87747 21.884 4.84052 22.1972 4.84224 22.3601C4.84396 22.5229 4.88692 22.8357 5.15806 23.1009L22.7774 40.3678C23.6118 41.1855 23.6252 42.5244 22.8079 43.3589C21.9902 44.1934 20.6517 44.2071 19.8168 43.3894L2.19751 26.122C1.18946 25.1341 0.627003 23.8133 0.612823 22.4022C0.598643 20.9911 1.13489 19.6591 2.12274 18.6514L19.7868 0.634219C20.201 0.211836 20.7488 0 21.2971 0Z" fill="#C8B8A1"/>
</svg>
