<svg width="255" height="60" viewBox="0 0 255 60" fill="none" xmlns="http://www.w3.org/2000/svg">
<g clip-path="url(#clip0)">
<path d="M10.8525 24.809C13.6162 23.3259 16.7169 22.5169 20.1546 22.5169C23.4576 22.5169 26.4235 23.3259 29.1872 24.9438C31.8834 26.5618 34.0404 28.7191 35.5908 31.4158C37.1412 34.1124 37.95 37.1461 37.95 40.3146C37.95 40.7191 37.95 41.0562 37.8826 41.4607H39.7026C39.7026 41.0562 39.77 40.7191 39.77 40.3146C39.77 37.618 39.2982 35.1236 38.2871 32.6967C37.276 30.2697 35.9278 28.1798 34.2427 26.427C32.4901 24.6742 30.4679 23.2585 27.9738 22.2472C25.5472 21.236 22.9183 20.6967 20.1546 20.6967C17.3236 20.6967 14.6947 21.1686 12.2006 22.1124C9.70658 23.0562 7.61697 24.4045 5.79699 26.1573C3.977 27.8427 2.56146 30 1.55036 32.4944C0.539255 34.9214 0 37.6854 0 40.5843V58.9214H1.81998V40.5843C1.81998 37.0787 2.62887 33.9101 4.24663 31.1461C5.86439 28.4495 8.02141 26.2922 10.8525 24.809Z" fill="#83580B"/>
<path d="M12.6724 27.9776C14.8968 26.8315 17.3909 26.2248 20.1546 26.2248C22.7834 26.2248 25.2101 26.8315 27.3671 28.1124C29.5241 29.3933 31.2093 31.0787 32.49 33.236C33.7033 35.3933 34.31 37.7529 34.31 40.3147C34.31 40.7192 34.31 41.0563 34.2426 41.4608H36.0626C36.0626 41.0563 36.13 40.7192 36.13 40.3147C36.13 38.1574 35.7255 36.0675 34.9167 34.1124C34.1078 32.1574 32.9619 30.472 31.5463 29.0563C30.1308 27.6405 28.4456 26.4945 26.4908 25.6181C24.536 24.7417 22.379 24.3372 20.1546 24.3372C17.0539 24.3372 14.2228 25.0113 11.7287 26.3596C9.23466 27.7079 7.27986 29.5956 5.79691 32.09C4.38137 34.5843 3.63989 37.4158 3.63989 40.5844V58.9214H5.45988V40.5844C5.45988 37.7529 6.13395 35.2585 7.41467 33.0338C8.6954 30.8765 10.448 29.1911 12.6724 27.9776Z" fill="#83580B"/>
<path d="M20.1547 30.0001C23.1206 30.0001 25.6147 31.0113 27.6369 33.0338C29.6591 35.0562 30.6702 37.4832 30.6702 40.3821C30.6702 40.7866 30.6702 41.1237 30.6028 41.5282H32.4228C32.4228 41.1237 32.4902 40.7866 32.4902 40.3821C32.4902 37.0113 31.2768 34.1124 28.9176 31.6855C26.5584 29.3259 23.6599 28.1124 20.1547 28.1124C17.7281 28.1124 15.5036 28.5843 13.6162 29.5956C11.6614 30.6068 10.1785 32.09 9.03258 33.9776C7.88667 35.8652 7.34741 38.09 7.34741 40.5843V58.9214H9.1674V40.5843C9.1674 37.3484 10.1785 34.7192 12.2681 32.8315C14.2903 30.9439 16.9192 30.0001 20.1547 30.0001Z" fill="#83580B"/>
<path d="M20.1547 33.708C22.042 33.708 23.5924 34.3821 24.9405 35.663C26.2887 36.9439 26.9627 38.5619 26.9627 40.3821C26.9627 40.7866 26.9627 41.1911 26.8953 41.5282H28.7153C28.7827 41.1237 28.7827 40.7866 28.7827 40.3821C28.7827 38.0226 27.9738 36.0001 26.2887 34.3147C24.6709 32.6293 22.5813 31.8203 20.0872 31.8203C17.391 31.8203 15.1666 32.6293 13.4814 34.1799C11.7962 35.7304 10.9199 37.8877 10.9199 40.6518V58.9889H12.8073V40.5844C12.8073 38.3596 13.4814 36.6742 14.8295 35.4608C16.1777 34.3147 17.9302 33.708 20.1547 33.708Z" fill="#83580B"/>
<path d="M62.8232 31.7528C60.5314 31.7528 58.5766 32.5618 57.0262 34.2472C55.4759 35.9326 54.7344 37.9551 54.7344 40.3146C54.7344 41.8652 55.004 43.2135 55.4759 44.427C55.9477 45.573 56.6218 46.5169 57.4306 47.191C58.2395 47.8652 59.1832 48.4045 60.1943 48.7416C60.8684 48.9438 61.5425 49.0787 62.2839 49.2135V47.4607C61.9469 47.3933 61.6773 47.3933 61.3402 47.3258C60.6662 47.191 60.0595 46.9213 59.4528 46.5843C58.8462 46.2472 58.3069 45.7753 57.9025 45.236C57.4981 44.6966 57.0936 44.0225 56.8914 43.2135C56.6218 42.4045 56.487 41.4607 56.487 40.4494C56.487 38.6292 57.0936 37.0112 58.3743 35.7303C59.6551 34.382 61.138 33.7753 62.8906 33.7753C64.9802 33.7753 66.598 34.382 67.8787 35.5955C69.1594 36.809 69.7661 38.4944 69.7661 40.7191V59.191H71.4513V40.5843C71.4513 37.8202 70.6424 35.6629 69.092 34.1124C67.4743 32.4944 65.3846 31.7528 62.8232 31.7528Z" fill="#83580B"/>
<path d="M68.9572 29.5281C67.1372 28.5169 65.115 27.9775 62.8232 27.9775C59.5877 27.9775 56.824 29.191 54.5996 31.5506C52.3751 33.9775 51.2966 36.8764 51.2966 40.2472C51.2966 42.2697 51.6337 44.0899 52.2403 45.7079C52.9144 47.3259 53.7907 48.6742 54.8692 49.6854C55.9477 50.6966 57.2284 51.4382 58.644 51.9775C59.7899 52.382 60.9358 52.6517 62.1491 52.7191V50.9663C61.138 50.8989 60.1943 50.6966 59.318 50.3596C58.1047 49.8876 57.0262 49.2809 56.0825 48.4045C55.1388 47.5281 54.3299 46.4494 53.7907 45.0337C53.2514 43.618 52.9144 42.0674 52.9144 40.2472C52.9144 37.3483 53.8581 34.8539 55.7455 32.8315C57.6329 30.809 59.9247 29.7978 62.7558 29.7978C65.7891 29.7978 68.2157 30.7416 70.1705 32.6966C72.0579 34.6517 73.069 37.2135 73.069 40.5169V58.9888H74.7542V40.5843C74.7542 38.0899 74.215 35.8652 73.2039 33.9101C72.1927 32.0225 70.7772 30.5393 68.9572 29.5281Z" fill="#83580B"/>
<path d="M80.2141 32.3596C79.2705 29.8652 77.9223 27.7079 76.2371 26.0225C74.552 24.2697 72.5298 22.9214 70.2379 21.9775C67.9461 21.0337 65.452 20.4944 62.8232 20.4944C60.2617 20.4944 57.7677 21.0337 55.4758 22.0449C53.184 23.1236 51.2292 24.4719 49.6114 26.2921C47.9937 28.0449 46.713 30.2023 45.8367 32.6292C44.9604 35.0562 44.4885 37.618 44.4885 40.3146C44.4885 42.6742 44.8256 44.8989 45.4996 46.9888C46.1737 49.0787 47.1174 50.8989 48.2633 52.5169C49.4092 54.0674 50.8248 55.4157 52.3751 56.5618C53.9255 57.7079 55.6107 58.5843 57.4306 59.191C59.0484 59.7303 60.6662 60 62.3513 60.0674V58.3146C60.9358 58.2472 59.5203 57.9775 58.1721 57.573C56.5544 57.0337 55.004 56.2247 53.5884 55.2135C52.1729 54.2023 50.8922 52.9214 49.8137 51.5056C48.7352 50.0899 47.8589 48.4045 47.2522 46.5169C46.6455 44.6292 46.3085 42.6067 46.3085 40.4494C46.3085 37.2135 47.05 34.2472 48.4655 31.4831C49.9485 28.7191 51.9033 26.5618 54.4647 24.9438C57.0262 23.3258 59.8573 22.5169 62.8906 22.5169C66.1261 22.5169 69.0246 23.2584 71.5861 24.809C74.2149 26.2921 76.2371 28.4494 77.7201 31.2809C79.203 34.0449 80.0119 37.2135 80.0119 40.7191V59.191H81.6971V40.5843C81.6971 37.618 81.2253 34.8539 80.2141 32.3596Z" fill="#83580B"/>
<path d="M70.7098 26.2921C68.3506 24.9438 65.7217 24.2697 62.8232 24.2697C60.7336 24.2697 58.7788 24.6741 56.8914 25.5506C55.004 26.427 53.4537 27.573 52.1055 28.9888C50.7574 30.4045 49.7463 32.1573 49.0048 34.1123C48.2633 36.0674 47.8589 38.1573 47.8589 40.3146C47.8589 43.3483 48.533 46.1798 49.9485 48.6067C51.2966 51.1011 53.184 52.9888 55.4759 54.3371C57.5655 55.5506 59.7899 56.2247 62.2165 56.3595V54.5393C60.7336 54.4719 59.3855 54.1348 58.0373 53.5955C56.4196 52.9213 55.004 52.0449 53.7233 50.8315C52.4425 49.6854 51.4314 48.1348 50.69 46.3146C49.9485 44.4944 49.5441 42.4719 49.5441 40.2472C49.5441 37.6854 50.1507 35.3258 51.2966 33.1011C52.4426 30.9438 54.0603 29.191 56.0825 27.9775C58.1047 26.6966 60.3292 26.0899 62.8232 26.0899C65.3847 26.0899 67.7439 26.6966 69.8335 27.8427C71.9231 28.9888 73.5409 30.7416 74.7542 32.8989C75.9675 35.1236 76.5742 37.618 76.5742 40.5168V58.9888H78.2594V40.5843C78.2594 37.4157 77.5853 34.5843 76.2372 32.0899C74.889 29.5281 73.069 27.6404 70.7098 26.2921Z" fill="#83580B"/>
<path d="M103.335 48.8764C101.043 48.8764 99.1554 48.0674 97.6051 46.382C96.0547 44.764 95.3132 42.7416 95.3132 40.382C95.3132 38.8315 95.5829 37.4831 96.0547 36.3371C96.5266 35.191 97.2006 34.2472 98.0095 33.573C98.8184 32.8989 99.7621 32.3596 100.706 32.0225C101.38 31.8202 102.054 31.6854 102.728 31.618V33.3708C102.391 33.4382 102.121 33.4382 101.784 33.5056C101.11 33.6404 100.504 33.9101 99.8969 34.2472C99.2902 34.5843 98.751 35.0562 98.3465 35.5955C97.9421 36.1348 97.6051 36.809 97.3354 37.618C97.0658 38.427 96.931 39.3708 96.931 40.382C96.931 42.2022 97.5377 43.7528 98.8184 45.0337C100.032 46.3146 101.515 46.9888 103.267 46.9888C105.289 46.9888 106.975 46.382 108.188 45.1685C109.401 43.9551 110.075 42.2697 110.075 40.0449L110.412 0H111.761L111.828 40.1124C111.828 42.809 111.019 44.9663 109.469 46.5169C107.918 48.1348 105.896 48.8764 103.335 48.8764Z" fill="#83580B"/>
<path d="M109.469 51.1011C107.649 52.1124 105.626 52.5843 103.402 52.5843C100.167 52.5843 97.4702 51.3708 95.2458 49.0112C93.0214 46.6517 91.9429 43.7528 91.9429 40.382C91.9429 38.3596 92.2799 36.6067 92.8866 34.9888C93.5606 33.3708 94.4369 32.0899 95.5154 31.0787C96.5939 30.0674 97.8747 29.3258 99.2902 28.7865C100.436 28.382 101.582 28.1124 102.795 28.0449V29.7978C101.852 29.8652 100.908 30.0674 99.9643 30.4045C98.751 30.809 97.6725 31.4831 96.7288 32.2921C95.7851 33.1011 94.9762 34.2472 94.4369 35.6629C93.8977 37.0787 93.628 38.6292 93.628 40.382C93.628 43.2809 94.5717 45.7079 96.3917 47.7303C98.2791 49.7528 100.571 50.764 103.335 50.764C106.301 50.764 108.795 49.8202 110.682 47.8652C112.569 45.9775 113.513 43.3483 113.513 40.1124L113.176 0H114.524L115.198 40.1124C115.198 42.6067 114.659 44.764 113.648 46.7191C112.637 48.6067 111.221 50.0899 109.469 51.1011Z" fill="#83580B"/>
<path d="M120.591 48.2697C119.647 50.764 118.299 52.8539 116.681 54.5393C114.996 56.2247 113.041 57.573 110.749 58.5169C108.457 59.4607 106.031 59.9326 103.402 59.9326C100.841 59.9326 98.4139 59.3933 96.1221 58.382C93.8302 57.3708 91.9428 55.9551 90.3251 54.2022C88.7073 52.4494 87.494 50.3595 86.5503 47.9326C85.6066 45.5056 85.2021 43.0112 85.2021 40.3146C85.2021 38.0225 85.5392 35.7978 86.2133 33.7079C86.8873 31.618 87.7636 29.7978 88.9769 28.2472C90.1228 26.6966 91.471 25.3483 93.0213 24.2022C94.5717 23.0562 96.1894 22.1798 98.0094 21.6404C99.5598 21.1011 101.178 20.8315 102.863 20.764V22.5169C101.447 22.5843 100.032 22.8539 98.6835 23.2584C97.0657 23.7978 95.5154 24.5393 94.0998 25.618C92.6843 26.6292 91.471 27.8427 90.3925 29.2584C89.314 30.6742 88.4377 32.3595 87.831 34.2472C87.2244 36.1348 86.8873 38.1573 86.8873 40.2472C86.8873 43.4831 87.6288 46.4494 89.0443 49.1461C90.4599 51.8427 92.4821 54 95.0435 55.618C97.605 57.236 100.369 57.9775 103.402 57.9775C106.57 57.9775 109.469 57.236 112.03 55.7528C114.592 54.2697 116.614 52.1124 118.164 49.3483C119.647 46.5843 120.388 43.4831 120.388 39.9775L120.051 0H121.4L122.006 40.1124C122.074 43.0786 121.602 45.7753 120.591 48.2697Z" fill="#83580B"/>
<path d="M111.154 54.2697C108.862 55.618 106.233 56.2921 103.335 56.2921C101.245 56.2921 99.2902 55.8876 97.4702 55.0112C95.6503 54.2022 94.0325 53.0562 92.7518 51.6404C91.471 50.2247 90.3925 48.5393 89.651 46.5843C88.9096 44.6292 88.5051 42.5393 88.5051 40.382C88.5051 37.3483 89.1792 34.5843 90.5273 32.1573C91.8755 29.7303 93.6954 27.7753 95.9873 26.4944C98.0769 25.2809 100.301 24.6067 102.728 24.5393V26.2921C101.312 26.3596 99.8969 26.6966 98.5487 27.236C96.931 27.9101 95.5154 28.7865 94.3021 29.9326C93.0214 31.0787 92.0777 32.5618 91.3362 34.382C90.5947 36.2022 90.2577 38.2247 90.2577 40.382C90.2577 42.9438 90.797 45.3034 91.9429 47.4607C93.0888 49.618 94.6391 51.3034 96.6613 52.5843C98.6835 53.8652 100.908 54.4719 103.335 54.4719C105.896 54.4719 108.188 53.8652 110.278 52.7191C112.367 51.573 113.985 49.8876 115.131 47.6629C116.344 45.5056 116.883 42.9438 116.883 40.1124L116.614 0H117.962L118.636 40.1124C118.636 43.2809 117.962 46.1124 116.614 48.5393C115.333 51.0337 113.513 52.9213 111.154 54.2697Z" fill="#83580B"/>
<path d="M128.073 19.5505H129.96V59.6629H128.073V19.5505ZM131.848 19.5505H133.735V59.6629H131.848V19.5505ZM135.623 19.5505H137.51V59.6629H135.623V19.5505ZM139.397 19.5505H141.285V59.6629H139.397V19.5505Z" fill="#83580B"/>
<path d="M159.35 34.1798C157.665 35.8652 156.923 37.8203 156.991 40.1124C157.058 42.4045 158.002 44.427 159.687 46.1124C160.765 47.1911 161.911 48 163.125 48.5394C164.338 49.0113 165.484 49.2135 166.562 49.1461C167.641 49.0787 168.652 48.7416 169.596 48.2697C170.202 47.9326 170.809 47.5281 171.416 47.1236L170.135 45.8427C169.865 46.045 169.596 46.2472 169.326 46.3821C168.719 46.7191 168.113 46.9888 167.439 47.1911C166.765 47.3933 166.09 47.3933 165.349 47.3259C164.675 47.2585 163.933 46.9888 163.125 46.5843C162.383 46.1798 161.574 45.5731 160.833 44.8315C159.552 43.5506 158.878 41.9326 158.811 40.1124C158.743 38.2922 159.35 36.7416 160.631 35.4607C162.113 33.9776 163.731 33.236 165.484 33.236C167.236 33.236 168.922 33.9776 170.472 35.5955L183.616 48.7416L184.83 47.5281L171.753 34.3821C169.798 32.427 167.708 31.4158 165.416 31.4158C163.192 31.4832 161.17 32.3596 159.35 34.1798Z" fill="#FFC76C"/>
<path d="M162.113 28.2472C160.091 28.7865 158.271 29.9326 156.654 31.5506C154.294 33.9101 153.216 36.6742 153.351 39.9775C153.485 43.2809 154.766 46.1124 157.193 48.6068C158.608 50.0225 160.159 51.1011 161.776 51.7753C163.394 52.4495 164.945 52.7865 166.495 52.7191C168.045 52.6517 169.461 52.3146 170.876 51.6405C171.955 51.1686 173.033 50.4944 173.91 49.618L172.629 48.3371C171.887 49.0113 171.079 49.4832 170.135 49.8877C168.989 50.427 167.708 50.7641 166.428 50.8315C165.147 50.8989 163.799 50.6292 162.383 50.0899C160.968 49.4832 159.619 48.5393 158.406 47.3259C156.316 45.236 155.238 42.809 155.103 40.045C154.968 37.2809 155.912 34.854 157.934 32.8989C160.091 30.7416 162.518 29.6629 165.282 29.6629C168.045 29.6629 170.607 30.809 172.899 33.1686L186.043 46.3146L187.256 45.1011L174.112 31.9551C172.292 30.1349 170.337 28.9214 168.247 28.3146C166.225 27.7079 164.136 27.6405 162.113 28.2472Z" fill="#FFC76C"/>
<path d="M172.224 22.1798C169.73 21.1011 167.304 20.4944 164.877 20.4944C162.45 20.4944 160.024 20.9663 157.732 21.9101C155.373 22.8539 153.283 24.2697 151.396 26.1573C149.576 27.9775 148.16 30.1348 147.284 32.4944C146.408 34.8539 146.003 37.2809 146.138 39.7079C146.273 42.1348 146.879 44.5618 147.891 46.9214C148.969 49.3483 150.452 51.5056 152.407 53.3933C154.092 55.0787 155.912 56.427 157.867 57.4382C159.822 58.4494 161.776 59.1236 163.799 59.3933C165.753 59.6629 167.708 59.6629 169.663 59.3933C171.618 59.1236 173.438 58.5169 175.123 57.6405C176.606 56.8989 178.021 55.8876 179.235 54.7416L177.954 53.4607C176.875 54.4045 175.73 55.2809 174.381 55.8876C172.831 56.6966 171.146 57.236 169.393 57.5056C167.641 57.7753 165.888 57.7753 164.068 57.573C162.248 57.3034 160.496 56.764 158.676 55.8202C156.856 54.8764 155.17 53.6629 153.688 52.1798C151.396 49.8876 149.778 47.191 148.834 44.2247C147.891 41.191 147.823 38.2247 148.497 35.2584C149.171 32.2921 150.587 29.6629 152.811 27.5056C155.103 25.2135 157.732 23.6629 160.63 22.9214C163.596 22.1124 166.562 22.1798 169.663 23.1236C172.696 24 175.527 25.7528 178.021 28.2472L191.166 41.3933L192.379 40.1798L179.235 27.0337C177.01 24.8764 174.718 23.3258 172.224 22.1798Z" fill="#FFC76C"/>
<path d="M161.035 24.6741C158.406 25.4157 156.047 26.764 153.957 28.8539C152.474 30.3371 151.396 32.0224 150.654 33.9775C149.913 35.9326 149.643 37.8876 149.71 39.8427C149.778 41.7977 150.25 43.7528 151.126 45.7078C152.002 47.6629 153.216 49.4157 154.766 50.9663C156.923 53.1236 159.417 54.6741 162.181 55.4157C164.944 56.2247 167.641 56.2247 170.202 55.5505C172.561 54.9438 174.651 53.7977 176.471 52.1123L175.19 50.8314C174.112 51.8427 172.898 52.5842 171.483 53.191C169.865 53.8651 168.18 54.2696 166.427 54.3371C164.675 54.4045 162.922 54.0674 161.035 53.2584C159.215 52.5168 157.462 51.3033 155.912 49.7528C154.092 47.9326 152.811 45.7753 152.07 43.4157C151.328 41.0562 151.261 38.6966 151.8 36.3371C152.339 33.9775 153.485 31.8876 155.238 30.1348C157.058 28.3146 159.147 27.0337 161.507 26.3595C163.866 25.6854 166.225 25.7528 168.652 26.4944C171.078 27.2359 173.303 28.5842 175.392 30.6067L188.537 43.7528L189.75 42.5393L176.606 29.3932C174.314 27.1011 171.82 25.5505 169.056 24.7415C166.36 24 163.664 23.9326 161.035 24.6741Z" fill="#FFC76C"/>
<path d="M201.412 48.3371C203.636 48.3371 205.726 47.3933 207.546 45.573L206.198 44.2247C204.715 45.7079 203.097 46.4494 201.344 46.4494C199.592 46.4494 197.907 45.7079 196.356 44.0899L183.144 31.0112L181.931 32.2247L195.075 45.3708C197.03 47.3933 199.12 48.4045 201.412 48.3371Z" fill="#FFC76C"/>
<path d="M198.513 51.5056C200.603 52.1124 202.692 52.1798 204.715 51.573C206.737 51.0337 208.557 49.8876 210.175 48.2697L208.826 46.9213C206.669 49.0786 204.243 50.1573 201.479 50.1573C198.715 50.1573 196.154 49.0112 193.862 46.6517L180.65 33.5056L179.437 34.7191L192.581 47.8652C194.401 49.6854 196.356 50.8989 198.513 51.5056Z" fill="#FFC76C"/>
<path d="M197.704 54.9439C200.468 55.7528 203.164 55.8203 205.793 55.0787C208.422 54.3371 210.781 52.9888 212.871 50.8989L211.523 49.5506C209.703 51.3708 207.613 52.6517 205.254 53.3259C202.895 54 200.535 53.9326 198.109 53.191C195.682 52.4495 193.458 51.1012 191.368 49.0787L178.224 35.9326L177.01 37.1461L190.155 50.2922C192.447 52.5843 194.941 54.1349 197.704 54.9439Z" fill="#FFC76C"/>
<path d="M194.604 57.573C197.098 58.6516 199.524 59.2584 201.951 59.2584C204.378 59.2584 206.804 58.7865 209.096 57.8426C211.455 56.8988 213.545 55.4831 215.432 53.5955L214.084 52.2471C211.792 54.5393 209.163 56.0898 206.265 56.8314C203.299 57.6404 200.333 57.573 197.232 56.6292C194.199 55.7528 191.368 53.9999 188.874 51.5056L175.73 38.3595L174.516 39.573L187.661 52.719C189.818 54.8763 192.11 56.4943 194.604 57.573Z" fill="#FFC76C"/>
<path d="M241.721 44.764C243.406 43.0786 244.147 41.1235 244.08 38.8314C244.013 36.5392 243.069 34.5168 241.384 32.8314C240.305 31.7527 239.159 30.9437 237.946 30.4044C236.733 29.9325 235.587 29.7303 234.508 29.7977C233.43 29.8651 232.419 30.2022 231.475 30.6741C230.868 31.0112 230.262 31.4157 229.655 31.8201L230.936 33.101C231.205 32.8988 231.475 32.6965 231.745 32.5617C232.351 32.2246 232.958 31.955 233.632 31.7527C234.306 31.5505 234.98 31.5505 235.722 31.6179C236.463 31.6853 237.137 31.955 237.946 32.3595C238.687 32.764 239.496 33.3707 240.238 34.1123C241.519 35.3932 242.193 37.0112 242.26 38.8314C242.327 40.6516 241.721 42.2022 240.44 43.4831C238.957 44.9662 237.339 45.7078 235.587 45.7078C233.834 45.7078 232.149 44.9662 230.599 43.3482L217.454 30.2022L216.241 31.4157L229.385 44.5617C231.34 46.5168 233.43 47.528 235.722 47.528C237.879 47.528 239.901 46.5842 241.721 44.764Z" fill="#FFC76C"/>
<path d="M238.89 50.764C240.912 50.2246 242.732 49.0786 244.35 47.4606C246.709 45.101 247.787 42.337 247.652 39.0336C247.518 35.7302 246.237 32.8988 243.81 30.4044C242.395 28.9887 240.844 27.91 239.227 27.2359C237.609 26.5617 236.058 26.2246 234.508 26.292C232.958 26.3595 231.542 26.6965 230.127 27.3707C229.048 27.8426 227.97 28.5168 227.093 29.3932L228.374 30.6741C229.116 29.9999 229.924 29.528 230.868 29.1235C232.014 28.5842 233.295 28.2471 234.576 28.1797C235.856 28.1123 237.204 28.3819 238.62 28.9213C240.035 29.528 241.384 30.4718 242.597 31.6853C244.687 33.7752 245.765 36.2021 245.9 38.9662C246.035 41.7302 245.091 44.1572 243.069 46.1123C240.912 48.2696 238.485 49.3482 235.721 49.3482C232.958 49.3482 230.396 48.2022 228.104 45.8426L214.96 32.6965L213.747 33.91L226.891 47.0561C228.711 48.8763 230.666 50.0898 232.756 50.6965C234.845 51.3033 236.867 51.3033 238.89 50.764Z" fill="#FFC76C"/>
<path d="M228.846 56.764C231.34 57.8426 233.767 58.4494 236.193 58.4494C238.62 58.4494 241.047 57.9775 243.339 57.0337C245.698 56.0898 247.787 54.6741 249.675 52.7865C251.495 50.9662 252.91 48.8089 253.787 46.4494C254.663 44.0898 255.067 41.6629 254.932 39.2359C254.798 36.8089 254.191 34.382 253.18 32.0224C252.101 29.5955 250.618 27.4382 248.664 25.5505C246.978 23.8651 245.158 22.5168 243.204 21.5056C241.249 20.4943 239.294 19.8202 237.272 19.5505C235.317 19.2809 233.362 19.2809 231.407 19.5505C229.453 19.8202 227.633 20.4269 225.948 21.3033C224.465 22.0449 223.049 23.0561 221.836 24.2022L223.116 25.4831C224.195 24.5393 225.341 23.6629 226.689 23.0561C228.239 22.2471 229.925 21.7078 231.677 21.4382C233.43 21.1685 235.182 21.1685 237.002 21.3707C238.822 21.6404 240.575 22.1797 242.395 23.1235C244.215 24.0674 245.9 25.2809 247.383 26.764C249.675 29.0561 251.293 31.7528 252.236 34.7191C253.18 37.7528 253.247 40.7191 252.573 43.6853C251.899 46.6516 250.484 49.2809 248.259 51.4382C245.967 53.7303 243.339 55.2808 240.44 56.0224C237.474 56.8314 234.508 56.764 231.407 55.8202C228.374 54.9438 225.543 53.191 223.049 50.6966L209.905 37.5505L208.691 38.764L221.903 51.9101C224.06 54.0674 226.352 55.6853 228.846 56.764Z" fill="#FFC76C"/>
<path d="M239.968 54.2696C242.597 53.5281 244.956 52.1798 247.046 50.0899C248.529 48.6067 249.607 46.9213 250.349 44.9663C251.09 43.0112 251.36 41.0562 251.293 39.1011C251.225 37.146 250.753 35.191 249.877 33.2359C249.001 31.2809 247.787 29.5281 246.237 27.9775C244.08 25.8202 241.586 24.2696 238.822 23.5281C236.059 22.7191 233.362 22.7191 230.801 23.3932C228.442 24 226.352 25.146 224.532 26.8314L225.813 28.1123C226.891 27.1011 228.105 26.3595 229.52 25.7528C231.138 25.0786 232.823 24.6741 234.576 24.6067C236.328 24.5393 238.081 24.8764 239.968 25.6854C241.788 26.4269 243.541 27.6404 245.091 29.191C246.911 31.0112 248.192 33.1685 248.933 35.5281C249.675 37.8876 249.742 40.2472 249.203 42.6067C248.664 44.9663 247.518 47.0562 245.765 48.809C243.945 50.6292 241.856 51.9101 239.496 52.5842C237.137 53.2584 234.778 53.191 232.351 52.4494C229.925 51.7078 227.7 50.3595 225.611 48.3371L212.466 35.0562L211.253 36.2696L224.397 49.4157C226.689 51.7078 229.183 53.2584 231.947 54.0674C234.643 54.9438 237.339 55.0112 239.968 54.2696Z" fill="#FFC76C"/>
<path d="M199.659 30.6067C197.435 30.6067 195.345 31.5505 193.525 33.3707L194.873 34.719C196.356 33.2359 197.974 32.4943 199.727 32.4943C201.479 32.4943 203.164 33.2359 204.715 34.8539L217.859 47.9999L219.072 46.7865L205.928 33.6404C204.041 31.5505 201.884 30.6067 199.659 30.6067Z" fill="#FFC76C"/>
<path d="M202.558 27.4382C200.468 26.8314 198.378 26.764 196.356 27.3707C194.334 27.9101 192.514 29.0561 190.896 30.6741L192.244 32.0224C194.401 29.8651 196.828 28.7865 199.592 28.7865C202.355 28.7865 204.917 29.9325 207.209 32.2921L220.353 45.4382L221.566 44.2247L208.422 31.0786C206.669 29.2584 204.715 28.0449 202.558 27.4382Z" fill="#FFC76C"/>
<path d="M203.366 23.9999C200.603 23.1909 197.907 23.1235 195.278 23.865C192.649 24.6066 190.29 25.9549 188.2 28.0448L189.548 29.3931C191.368 27.5729 193.458 26.292 195.817 25.6178C198.176 24.9437 200.535 25.0111 202.962 25.7527C205.389 26.4942 207.613 27.8426 209.703 29.865L222.847 43.0111L224.06 41.7976L210.916 28.6515C208.624 26.3594 206.13 24.8088 203.366 23.9999Z" fill="#FFC76C"/>
<path d="M206.467 21.3707C203.973 20.292 201.546 19.6853 199.12 19.6853C196.693 19.6853 194.266 20.1572 191.975 21.101C189.615 22.0449 187.526 23.4606 185.638 25.3482L186.987 26.6965C189.278 24.4044 191.907 22.8538 194.806 22.1123C197.772 21.3033 200.738 21.3707 203.838 22.3145C206.872 23.1909 209.703 24.9437 212.197 27.4381L225.341 40.5842L226.554 39.3707L213.41 26.2246C211.253 24.0673 208.894 22.4493 206.467 21.3707Z" fill="#FFC76C"/>
</g>
<defs>
<clipPath id="clip0">
<rect width="255" height="60" fill="white"/>
</clipPath>
</defs>
</svg>
