<?xml version="1.0" encoding="utf-8"?>
<!-- Generator: Adobe Illustrator 23.0.6, SVG Export Plug-In . SVG Version: 6.00 Build 0)  -->
<svg version="1.1" id="图层_1" xmlns="http://www.w3.org/2000/svg" xmlns:xlink="http://www.w3.org/1999/xlink" x="0px" y="0px"
	 viewBox="0 0 738 622.2" style="enable-background:new 0 0 738 622.2;" xml:space="preserve">
<style type="text/css">
	.st0{fill:#FFFFFF;stroke:#C78E30;stroke-width:2;stroke-miterlimit:10;}
	.st1{fill:#C78E30;}
	.st2{fill:none;stroke:#C78E30;stroke-width:2;stroke-miterlimit:10;}
	.st3{opacity:0.63;fill:#FACF87;stroke:#C78E30;stroke-width:2;stroke-miterlimit:10;enable-background:new    ;}
	.st4{fill-rule:evenodd;clip-rule:evenodd;fill:#C78E30;}
	.st5{fill:none;stroke:#7A6542;stroke-miterlimit:10;}
	.st6{fill:none;stroke:#FF3506;stroke-width:2;stroke-miterlimit:10;}
	.st7{opacity:0.77;fill:#C78E30;enable-background:new    ;}
	.st8{fill:#AD7A26;}
	.st9{font-family:'Roboto-Medium';}
	.st10{font-size:17px;}
	.st11{font-size:16px;}
</style>
<g>
	
		<rect x="85.4" y="76.9" transform="matrix(0.9872 -0.1598 0.1598 0.9872 -11.3492 33.1531)" class="st0" width="230.1" height="20.5"/>
	
		<rect x="313.8" y="58.2" transform="matrix(0.9872 -0.1598 0.1598 0.9872 -6.4212 52.9316)" class="st0" width="24.2" height="16.4"/>
	
		<rect x="337.7" y="57.1" transform="matrix(0.9872 -0.1598 0.1598 0.9872 -5.6631 55.9676)" class="st0" width="14.9" height="12.2"/>
	
		<rect x="352.3" y="54.6" transform="matrix(0.9872 -0.1598 0.1598 0.9872 -4.6659 60.0676)" class="st0" width="37.7" height="8.9"/>
	
		<rect x="388.2" y="37.2" transform="matrix(0.9872 -0.1598 0.1598 0.9872 -4.804874e-02 78.8674)" class="st0" width="204.3" height="5.1"/>
	<path class="st0" d="M100.9,124.7H89.2c-5,0-9.1-4.1-9.1-9.1V104c0-5,4.1-9.1,9.1-9.1h11.7c5,0,9.1,4.1,9.1,9.1v11.7
		C110,120.6,105.9,124.7,100.9,124.7z"/>
	<path class="st1" d="M102.1,603.2h-28c-3.6,0-6.5,2.9-6.5,6.5v5c0,3.6,2.9,6.5,6.5,6.5h28c3.6,0,6.5-2.9,6.5-6.5v-5
		C108.6,606.1,105.7,603.2,102.1,603.2z"/>
	<path class="st1" d="M680.1,603.2h-28c-3.6,0-6.5,2.9-6.5,6.5v5c0,3.6,2.9,6.5,6.5,6.5h28c3.6,0,6.5-2.9,6.5-6.5v-5
		C686.6,606.1,683.7,603.2,680.1,603.2z"/>
	<path class="st0" d="M704,118.3H34c-18.2,0-33,15.4-33,34.5v425c0,19,14.7,34.4,32.9,34.4h670c18.2,0,32.9-15.4,32.9-34.4v-425
		C736.9,133.7,722.1,118.3,704,118.3z"/>
	<path class="st2" d="M702.5,148.8h-668c-6.6,0-12,5.6-12,12.6v407.2c0,6.9,5.4,12.6,12,12.6h668c6.6,0,12-5.6,12-12.6V161.4
		C714.5,154.4,709.1,148.8,702.5,148.8z"/>
	<path class="st3" d="M703.5,118.3h-670c-18.2,0-32.9,15.4-32.9,34.4v425c0,19,14.7,34.4,32.9,34.4h670c18.2,0,32.9-15.4,32.9-34.4
		v-425C736.4,133.7,721.7,118.3,703.5,118.3z M714,568.5c0,6.9-5.4,12.6-12,12.6H34c-6.6,0-12-5.6-12-12.6V161.4
		c0-6.9,5.4-12.6,12-12.6h668c6.6,0,12,5.6,12,12.6V568.5z"/>
	<rect x="591.5" y="19.5" transform="matrix(0.9872 -0.1598 0.1598 0.9872 3.9387 95.0147)" class="st0" width="2.5" height="7"/>
</g>
<g>
	<path class="st2" d="M623.6,179.8H114.2c-17.7,0-32.1,15-32.1,33.5v130c0,18.5,14.4,33.5,32.1,33.5h509.4c17.7,0,32.1-15,32.1-33.5
		v-130C655.7,194.8,641.3,179.8,623.6,179.8z"/>
	<path class="st2" d="M604.7,400.5H133.1c-28.2,0-51,24.8-51,55.5v42.2c0,30.6,22.8,55.5,51,55.5h471.6c28.2,0,51-24.8,51-55.5V456
		C655.7,425.3,632.9,400.5,604.7,400.5z"/>
	<path class="st4" d="M167.9,427.6c-23.2,0.5-41.8,19.5-41.8,42.8c0,23.7,19.2,42.8,42.8,42.8s42.8-19.2,42.8-42.8
		c0-23.3-18.6-42.3-41.8-42.8v19.5h-2V427.6z M168.9,425.6c-24.8,0-44.8,20.1-44.8,44.8s20.1,44.8,44.8,44.8s44.8-20.1,44.8-44.8
		S193.6,425.6,168.9,425.6z"/>
	<path class="st4" d="M564.2,427.6c-23.2,0.5-41.8,19.5-41.8,42.8c0,23.7,19.2,42.8,42.8,42.8c23.7,0,42.8-19.2,42.8-42.8
		c0-23.3-18.6-42.3-41.8-42.8v19.5h-2V427.6z M565.2,425.6c-24.8,0-44.8,20.1-44.8,44.8s20.1,44.8,44.8,44.8
		c24.8,0,44.8-20.1,44.8-44.8S590,425.6,565.2,425.6z"/>
	<path class="st0" d="M249.5,518.9c7,0,12.6-5.6,12.6-12.6c0-7-5.6-12.6-12.6-12.6s-12.6,5.6-12.6,12.6
		C236.9,513.3,242.6,518.9,249.5,518.9z"/>
	<path class="st0" d="M286.8,518.9c7,0,12.6-5.6,12.6-12.6c0-7-5.6-12.6-12.6-12.6s-12.6,5.6-12.6,12.6
		C274.2,513.3,279.9,518.9,286.8,518.9z"/>
	<path class="st0" d="M322.4,518.9c7,0,12.6-5.6,12.6-12.6c0-7-5.6-12.6-12.6-12.6s-12.6,5.6-12.6,12.6
		C309.8,513.3,315.5,518.9,322.4,518.9z"/>
	<path class="st2" d="M112,179.8v197"/>
	<path class="st2" d="M143.7,179.8v197"/>
	<path class="st2" d="M175.4,179.8v197"/>
	<path class="st2" d="M207.1,179.8v197"/>
	<path class="st2" d="M238.8,179.8v197"/>
	<path class="st2" d="M270.5,179.8v197"/>
	<path class="st2" d="M302.2,179.8v197"/>
	<path class="st2" d="M333.9,179.8v197"/>
	<path class="st2" d="M365.6,179.8v197"/>
	<path class="st2" d="M397.4,179.8v197"/>
	<path class="st2" d="M429.1,179.8v197"/>
	<path class="st2" d="M460.8,179.8v197"/>
	<path class="st2" d="M492.5,179.8v197"/>
	<path class="st2" d="M524.2,179.8v197"/>
	<path class="st2" d="M555.9,179.8v197"/>
	<path class="st2" d="M587.6,179.8v197"/>
	<path class="st2" d="M619.3,179.8v197"/>
	<path class="st5" d="M236.9,462.5h253.7"/>
	<path class="st5" d="M320.4,461.5v-18.7"/>
	<path class="st5" d="M328.8,462v-11.6"/>
	<path class="st5" d="M337.2,462v-11.6"/>
	<path class="st5" d="M345.6,462v-11.6"/>
	<path class="st5" d="M354,462v-11.6"/>
	<path class="st5" d="M362.3,462.5v-18.7"/>
	<path class="st5" d="M370.7,462.9v-11.7"/>
	<path class="st5" d="M379.1,462.9v-11.7"/>
	<path class="st5" d="M387.5,462.9v-11.7"/>
	<path class="st5" d="M395.9,462.9v-11.7"/>
	<path class="st5" d="M404.3,462.5v-18.7"/>
	<path class="st5" d="M412.7,462.9v-11.7"/>
	<path class="st5" d="M421.1,462.9v-11.7"/>
	<path class="st5" d="M429.5,462.9v-11.7"/>
	<path class="st5" d="M437.9,462.9v-11.7"/>
	<path class="st5" d="M447.2,462.5v-18.7"/>
	<path class="st5" d="M455.6,462.9v-11.7"/>
	<path class="st5" d="M464,462.9v-11.7"/>
	<path class="st5" d="M472.4,462.9v-11.7"/>
	<path class="st5" d="M480.8,462.9v-11.7"/>
	<path class="st5" d="M286.8,461.5v-18.7"/>
	<path class="st5" d="M295.2,462v-11.7"/>
	<path class="st5" d="M303.6,462v-11.7"/>
	<path class="st5" d="M312,462v-11.7"/>
	<path class="st5" d="M320.4,462v-11.7"/>
	<path class="st5" d="M245.8,462.5v-18.7"/>
	<path class="st5" d="M254.1,462.9v-11.7"/>
	<path class="st5" d="M262.5,462.9v-11.7"/>
	<path class="st5" d="M270.9,462.9v-11.7"/>
	<path class="st5" d="M279.3,462.9v-11.7"/>
	<path class="st6" d="M362.4,462.5v-27"/>
	<path class="st7" d="M478.6,428.4H248.9c-6.6,0-12,5.4-12,12v19.8c0,6.6,5.4,12,12,12h229.7c6.6,0,12-5.4,12-12v-19.8
		C490.6,433.8,485.2,428.4,478.6,428.4z"/>
	<path class="st2" d="M172.1,365.1c45.6,0,82.5-38.7,82.5-86.3s-37-86.3-82.5-86.3s-82.5,38.7-82.5,86.3S126.5,365.1,172.1,365.1z"
		/>
	<path class="st2" d="M564.8,365.1c45.6,0,82.5-38.7,82.5-86.3s-37-86.3-82.5-86.3s-82.5,38.7-82.5,86.3S519.2,365.1,564.8,365.1z"
		/>
	<path class="st8" d="M448.8,222.7H282.5c-6.6,0-12,5.6-12,12.6v58.8c0,6.9,5.4,12.6,12,12.6h166.2c6.6,0,12-5.6,12-12.6v-58.8
		C460.8,228.4,455.4,222.7,448.8,222.7z"/>
	<text transform="matrix(1 0 0 1 536.3005 538.4612)" class="st1 st9 st10">Volume</text>
	<text transform="matrix(1 0 0 1 140.6899 538.4615)" class="st1 st9 st11">Tunning</text>
</g>
</svg>
