<svg id="图层_1" data-name="图层 1" xmlns="http://www.w3.org/2000/svg" viewBox="0 0 738.2 527.3"><defs><style>.cls-1{fill:#fff;}.cls-1,.cls-3,.cls-4{stroke:#c78e30;}.cls-1,.cls-3,.cls-4,.cls-6,.cls-7{stroke-miterlimit:10;}.cls-1,.cls-3,.cls-4,.cls-7{stroke-width:2px;}.cls-10,.cls-12,.cls-2,.cls-5,.cls-8{fill:#c78e30;}.cls-3,.cls-6,.cls-7{fill:none;}.cls-4{fill:#facf87;opacity:0.63;}.cls-10,.cls-12,.cls-4,.cls-8{isolation:isolate;}.cls-5{fill-rule:evenodd;}.cls-6{stroke:#7a6542;}.cls-7{stroke:#ff3506;}.cls-8{opacity:0.77;}.cls-9{fill:#ad7a26;}.cls-10{font-size:17px;}.cls-10,.cls-12{font-family:Roboto-Medium, Roboto;font-weight:500;}.cls-11{letter-spacing:-0.02em;}.cls-12{font-size:16px;}.cls-13{letter-spacing:-0.03em;}</style></defs><title>radio-base</title><path class="cls-1" d="M100.9,124.7H89.2a9.13,9.13,0,0,1-9.1-9.1V104a9.13,9.13,0,0,1,9.1-9.1h11.7A9.13,9.13,0,0,1,110,104v11.7A9.11,9.11,0,0,1,100.9,124.7Z" transform="translate(0.4 -93.9)"/><path class="cls-2" d="M102.1,603.2h-28a6.49,6.49,0,0,0-6.5,6.5v5a6.49,6.49,0,0,0,6.5,6.5h28a6.49,6.49,0,0,0,6.5-6.5v-5A6.49,6.49,0,0,0,102.1,603.2Z" transform="translate(0.4 -93.9)"/><path class="cls-2" d="M680.1,603.2h-28a6.49,6.49,0,0,0-6.5,6.5v5a6.49,6.49,0,0,0,6.5,6.5h28a6.49,6.49,0,0,0,6.5-6.5v-5A6.49,6.49,0,0,0,680.1,603.2Z" transform="translate(0.4 -93.9)"/><path class="cls-1" d="M704,118.3H34c-18.2,0-33,15.4-33,34.5v425c0,19,14.7,34.4,32.9,34.4h670c18.2,0,32.9-15.4,32.9-34.4v-425C736.9,133.7,722.1,118.3,704,118.3Z" transform="translate(0.4 -93.9)"/><path class="cls-3" d="M702.5,148.8H34.5c-6.6,0-12,5.6-12,12.6V568.6c0,6.9,5.4,12.6,12,12.6h668c6.6,0,12-5.6,12-12.6V161.4C714.5,154.4,709.1,148.8,702.5,148.8Z" transform="translate(0.4 -93.9)"/><path class="cls-4" d="M703.5,118.3H33.5C15.3,118.3.6,133.7.6,152.7v425c0,19,14.7,34.4,32.9,34.4h670c18.2,0,32.9-15.4,32.9-34.4v-425C736.4,133.7,721.7,118.3,703.5,118.3ZM714,568.5c0,6.9-5.4,12.6-12,12.6H34c-6.6,0-12-5.6-12-12.6V161.4c0-6.9,5.4-12.6,12-12.6H702c6.6,0,12,5.6,12,12.6Z" transform="translate(0.4 -93.9)"/><path class="cls-3" d="M623.6,179.8H114.2c-17.7,0-32.1,15-32.1,33.5v130c0,18.5,14.4,33.5,32.1,33.5H623.6c17.7,0,32.1-15,32.1-33.5v-130C655.7,194.8,641.3,179.8,623.6,179.8Z" transform="translate(0.4 -93.9)"/><path class="cls-3" d="M604.7,400.5H133.1c-28.2,0-51,24.8-51,55.5v42.2c0,30.6,22.8,55.5,51,55.5H604.7c28.2,0,51-24.8,51-55.5V456C655.7,425.3,632.9,400.5,604.7,400.5Z" transform="translate(0.4 -93.9)"/><path class="cls-5" d="M167.9,427.6a42.8,42.8,0,1,0,2,0v19.5h-2Zm1-2a44.8,44.8,0,1,0,44.8,44.8A44.79,44.79,0,0,0,168.9,425.6Z" transform="translate(0.4 -93.9)"/><path class="cls-1" d="M249.5,518.9a12.6,12.6,0,1,0-12.6-12.6A12.55,12.55,0,0,0,249.5,518.9Z" transform="translate(0.4 -93.9)"/><path class="cls-1" d="M286.8,518.9a12.6,12.6,0,1,0-12.6-12.6A12.55,12.55,0,0,0,286.8,518.9Z" transform="translate(0.4 -93.9)"/><path class="cls-1" d="M322.4,518.9a12.6,12.6,0,1,0-12.6-12.6A12.55,12.55,0,0,0,322.4,518.9Z" transform="translate(0.4 -93.9)"/><path class="cls-3" d="M112,179.8v197" transform="translate(0.4 -93.9)"/><path class="cls-3" d="M143.7,179.8v197" transform="translate(0.4 -93.9)"/><path class="cls-3" d="M175.4,179.8v197" transform="translate(0.4 -93.9)"/><path class="cls-3" d="M207.1,179.8v197" transform="translate(0.4 -93.9)"/><path class="cls-3" d="M238.8,179.8v197" transform="translate(0.4 -93.9)"/><path class="cls-3" d="M270.5,179.8v197" transform="translate(0.4 -93.9)"/><path class="cls-3" d="M302.2,179.8v197" transform="translate(0.4 -93.9)"/><path class="cls-3" d="M333.9,179.8v197" transform="translate(0.4 -93.9)"/><path class="cls-3" d="M365.6,179.8v197" transform="translate(0.4 -93.9)"/><path class="cls-3" d="M397.4,179.8v197" transform="translate(0.4 -93.9)"/><path class="cls-3" d="M429.1,179.8v197" transform="translate(0.4 -93.9)"/><path class="cls-3" d="M460.8,179.8v197" transform="translate(0.4 -93.9)"/><path class="cls-3" d="M492.5,179.8v197" transform="translate(0.4 -93.9)"/><path class="cls-3" d="M524.2,179.8v197" transform="translate(0.4 -93.9)"/><path class="cls-3" d="M555.9,179.8v197" transform="translate(0.4 -93.9)"/><path class="cls-3" d="M587.6,179.8v197" transform="translate(0.4 -93.9)"/><path class="cls-3" d="M619.3,179.8v197" transform="translate(0.4 -93.9)"/><path class="cls-6" d="M236.9,462.5H490.6" transform="translate(0.4 -93.9)"/><path class="cls-6" d="M320.4,461.5V442.8" transform="translate(0.4 -93.9)"/><path class="cls-6" d="M328.8,462V450.4" transform="translate(0.4 -93.9)"/><path class="cls-6" d="M337.2,462V450.4" transform="translate(0.4 -93.9)"/><path class="cls-6" d="M345.6,462V450.4" transform="translate(0.4 -93.9)"/><path class="cls-6" d="M354,462V450.4" transform="translate(0.4 -93.9)"/><path class="cls-6" d="M362.3,462.5V443.8" transform="translate(0.4 -93.9)"/><path class="cls-6" d="M370.7,462.9V451.2" transform="translate(0.4 -93.9)"/><path class="cls-6" d="M379.1,462.9V451.2" transform="translate(0.4 -93.9)"/><path class="cls-6" d="M387.5,462.9V451.2" transform="translate(0.4 -93.9)"/><path class="cls-6" d="M395.9,462.9V451.2" transform="translate(0.4 -93.9)"/><path class="cls-6" d="M404.3,462.5V443.8" transform="translate(0.4 -93.9)"/><path class="cls-6" d="M412.7,462.9V451.2" transform="translate(0.4 -93.9)"/><path class="cls-6" d="M421.1,462.9V451.2" transform="translate(0.4 -93.9)"/><path class="cls-6" d="M429.5,462.9V451.2" transform="translate(0.4 -93.9)"/><path class="cls-6" d="M437.9,462.9V451.2" transform="translate(0.4 -93.9)"/><path class="cls-6" d="M447.2,462.5V443.8" transform="translate(0.4 -93.9)"/><path class="cls-6" d="M455.6,462.9V451.2" transform="translate(0.4 -93.9)"/><path class="cls-6" d="M464,462.9V451.2" transform="translate(0.4 -93.9)"/><path class="cls-6" d="M472.4,462.9V451.2" transform="translate(0.4 -93.9)"/><path class="cls-6" d="M480.8,462.9V451.2" transform="translate(0.4 -93.9)"/><path class="cls-6" d="M286.8,461.5V442.8" transform="translate(0.4 -93.9)"/><path class="cls-6" d="M295.2,462V450.3" transform="translate(0.4 -93.9)"/><path class="cls-6" d="M303.6,462V450.3" transform="translate(0.4 -93.9)"/><path class="cls-6" d="M312,462V450.3" transform="translate(0.4 -93.9)"/><path class="cls-6" d="M320.4,462V450.3" transform="translate(0.4 -93.9)"/><path class="cls-6" d="M245.8,462.5V443.8" transform="translate(0.4 -93.9)"/><path class="cls-6" d="M254.1,462.9V451.2" transform="translate(0.4 -93.9)"/><path class="cls-6" d="M262.5,462.9V451.2" transform="translate(0.4 -93.9)"/><path class="cls-6" d="M270.9,462.9V451.2" transform="translate(0.4 -93.9)"/><path class="cls-6" d="M279.3,462.9V451.2" transform="translate(0.4 -93.9)"/><path class="cls-7" d="M362.4,462.5v-27" transform="translate(0.4 -93.9)"/><path class="cls-8" d="M478.6,428.4H248.9a12,12,0,0,0-12,12v19.8a12,12,0,0,0,12,12H478.6a12,12,0,0,0,12-12V440.4A12,12,0,0,0,478.6,428.4Z" transform="translate(0.4 -93.9)"/><path class="cls-3" d="M172.1,365.1c45.6,0,82.5-38.7,82.5-86.3s-37-86.3-82.5-86.3-82.5,38.7-82.5,86.3S126.5,365.1,172.1,365.1Z" transform="translate(0.4 -93.9)"/><path class="cls-3" d="M564.8,365.1c45.6,0,82.5-38.7,82.5-86.3s-37-86.3-82.5-86.3-82.5,38.7-82.5,86.3S519.2,365.1,564.8,365.1Z" transform="translate(0.4 -93.9)"/><path class="cls-9" d="M448.8,222.7H282.5c-6.6,0-12,5.6-12,12.6v58.8c0,6.9,5.4,12.6,12,12.6H448.7c6.6,0,12-5.6,12-12.6V235.3C460.8,228.4,455.4,222.7,448.8,222.7Z" transform="translate(0.4 -93.9)"/><text class="cls-10" transform="translate(535.7 444.56)"><tspan class="cls-11">V</tspan><tspan x="10.62" y="0">olume</tspan></text><text class="cls-12" transform="translate(141.09 444.56)"><tspan class="cls-13"></tspan><tspan x="9.2" y="0">Tuning</tspan></text></svg>