<svg width="250" height="41" viewBox="0 0 250 41" fill="none" xmlns="http://www.w3.org/2000/svg">
<path d="M12.9297 19.6875H23.1016C24.6484 19.6875 25.9531 19.1875 27.0156 18.1875C28.0938 17.1875 28.6328 15.7656 28.6328 13.9219C28.6328 12.5625 28.0703 11.3438 26.9453 10.2656C25.8203 9.17188 24.5391 8.625 23.1016 8.625H8.61719V39H6.92969V6.9375H23.1016C25.0078 6.9375 26.6875 7.64844 28.1406 9.07031C29.5938 10.4766 30.3203 12.0938 30.3203 13.9219C30.3203 16.1719 29.6172 17.9766 28.2109 19.3359C26.8047 20.6953 25.1016 21.375 23.1016 21.375H12.9297V19.6875ZM12.9297 23.0625H23.1016C25.5391 23.0625 27.6328 22.2109 29.3828 20.5078C31.1328 18.7891 32.0078 16.5938 32.0078 13.9219C32.0078 11.625 31.1094 9.60938 29.3125 7.875C27.5312 6.125 25.4609 5.25 23.1016 5.25H5.24219V39H3.55469V3.5625H23.1016C24.9609 3.5625 26.7031 4.03906 28.3281 4.99219C29.9688 5.94531 31.2734 7.22656 32.2422 8.83594C33.2109 10.4297 33.6953 12.125 33.6953 13.9219C33.6953 17 32.6484 19.5781 30.5547 21.6562C28.4766 23.7188 25.9922 24.75 23.1016 24.75H12.9297V23.0625ZM12.9297 26.4375H23.1016C25.2891 26.4375 27.3203 25.8984 29.1953 24.8203C31.0703 23.7422 32.5703 22.2422 33.6953 20.3203C34.8203 18.3828 35.3828 16.25 35.3828 13.9219C35.3828 11.8125 34.8203 9.83594 33.6953 7.99219C32.5859 6.13281 31.0859 4.64844 29.1953 3.53906C27.3047 2.42969 25.2734 1.875 23.1016 1.875H1.86719V39H0.179688V0.1875H23.1016C25.5547 0.1875 27.8594 0.820312 30.0156 2.08594C32.1719 3.33594 33.8828 5.02344 35.1484 7.14844C36.4297 9.25781 37.0703 11.5156 37.0703 13.9219C37.0703 16.7031 36.4688 19.1484 35.2656 21.2578C34.0781 23.3672 32.4609 25.0156 30.4141 26.2031L34.7734 39H32.9922L28.8203 27C28.1953 27.25 27.7188 27.4219 27.3906 27.5156L31.3047 39H29.5234L25.7031 27.9141C25.5625 27.9453 25.0625 28 24.2031 28.0781L27.8359 39H26.0547L22.4688 28.125H20.9453L24.3672 39H22.5859L19.1406 28.125H12.9297V26.4375ZM11.9922 39H10.3047V10.3125H23.1016C24.1484 10.3125 25.0469 10.6719 25.7969 11.3906C26.5625 12.0938 26.9453 12.9375 26.9453 13.9219C26.9453 16.6406 25.6641 18 23.1016 18H12.9297V16.3125H23.1016C23.7734 16.3125 24.2969 16.1406 24.6719 15.7969C25.0625 15.4375 25.2578 14.8125 25.2578 13.9219C25.2578 13.375 25.0469 12.9219 24.625 12.5625C24.2188 12.1875 23.7109 12 23.1016 12H11.9922V39ZM64.6328 22.3594C64.6328 20.3594 64.0156 18.8125 62.7812 17.7188C61.5469 16.625 59.9141 16.0781 57.8828 16.0781C56.1641 16.0781 54.6875 16.6719 53.4531 17.8594C52.2188 19.0469 51.6016 20.4688 51.6016 22.125C51.6016 23.0625 51.7266 23.9062 51.9766 24.6562C52.2266 25.3906 52.5625 26.0078 52.9844 26.5078C53.4219 26.9922 53.9375 27.3984 54.5312 27.7266C55.125 28.0391 55.7422 28.2656 56.3828 28.4062C57.0391 28.5469 57.7344 28.6172 58.4688 28.6172C60.25 28.6172 61.875 28.1797 63.3438 27.3047V28.9922C61.8281 29.7891 60.1953 30.1875 58.4453 30.1875C57.3203 30.1875 56.2578 30.0391 55.2578 29.7422C54.2734 29.4297 53.375 28.9688 52.5625 28.3594C51.75 27.7344 51.1016 26.8906 50.6172 25.8281C50.1484 24.75 49.9141 23.5156 49.9141 22.125C49.9141 19.9688 50.6719 18.1406 52.1875 16.6406C53.7031 15.1406 55.6016 14.3906 57.8828 14.3906C60.3984 14.3906 62.4297 15.1016 63.9766 16.5234C65.5391 17.9297 66.3203 19.875 66.3203 22.3594V39H64.6328V22.3594ZM69.6953 22.3594V39H68.0078V22.3594C68.0078 19.4062 67.0625 17.0625 65.1719 15.3281C63.2812 13.5781 60.8516 12.7031 57.8828 12.7031C55.1328 12.7031 52.8359 13.6172 50.9922 15.4453C49.1484 17.2734 48.2266 19.5 48.2266 22.125C48.2266 23.7188 48.5 25.1484 49.0469 26.4141C49.6094 27.6797 50.3672 28.6953 51.3203 29.4609C52.2734 30.2266 53.3359 30.8125 54.5078 31.2188C55.6953 31.6094 56.9453 31.8047 58.2578 31.8047C60.0391 31.8047 61.7344 31.3906 63.3438 30.5625V32.3438C61.6562 33.0469 59.9531 33.3984 58.2344 33.3984C56.6875 33.3984 55.2188 33.1641 53.8281 32.6953C52.4375 32.2109 51.1953 31.5156 50.1016 30.6094C49.0078 29.6875 48.1406 28.5 47.5 27.0469C46.8594 25.5781 46.5391 23.9375 46.5391 22.125C46.5391 19.0469 47.625 16.4297 49.7969 14.2734C51.9844 12.1016 54.6797 11.0156 57.8828 11.0156C60.1328 11.0156 62.1484 11.4766 63.9297 12.3984C65.7109 13.3047 67.1172 14.625 68.1484 16.3594C69.1797 18.0938 69.6953 20.0938 69.6953 22.3594ZM73.0703 22.3594V39H71.3828V22.3594C71.3828 19.7812 70.7891 17.5 69.6016 15.5156C68.4297 13.5156 66.8203 11.9844 64.7734 10.9219C62.7266 9.85938 60.4297 9.32812 57.8828 9.32812C55.4609 9.32812 53.25 9.90625 51.25 11.0625C49.25 12.2031 47.6797 13.75 46.5391 15.7031C45.4141 17.6562 44.8516 19.7969 44.8516 22.125C44.8516 24.125 45.2188 25.9531 45.9531 27.6094C46.6875 29.25 47.6719 30.6016 48.9062 31.6641C50.1562 32.7266 51.5703 33.5547 53.1484 34.1484C54.7422 34.7266 56.4062 35.0156 58.1406 35.0156C59.9062 35.0156 61.6406 34.6484 63.3438 33.9141V35.625C61.5625 36.2969 59.8125 36.6328 58.0938 36.6328C55.3906 36.6328 52.9062 36.0234 50.6406 34.8047C48.375 33.5859 46.5625 31.8594 45.2031 29.625C43.8438 27.3906 43.1641 24.8906 43.1641 22.125C43.1641 20.1562 43.5391 18.2812 44.2891 16.5C45.0547 14.7188 46.0859 13.1797 47.3828 11.8828C48.6797 10.5859 50.2422 9.55469 52.0703 8.78906C53.8984 8.02344 55.8359 7.64062 57.8828 7.64062C60.7422 7.64062 63.3203 8.25 65.6172 9.46875C67.9297 10.6875 69.75 12.4219 71.0781 14.6719C72.4062 16.9219 73.0703 19.4844 73.0703 22.3594ZM76.4453 22.3594V39H74.7578V22.3594C74.7578 19.1719 74.0156 16.3281 72.5312 13.8281C71.0469 11.3125 69.0234 9.375 66.4609 8.01562C63.8984 6.64062 61.0391 5.95312 57.8828 5.95312C54.8516 5.95312 52.0781 6.67969 49.5625 8.13281C47.0469 9.58594 45.0703 11.5547 43.6328 14.0391C42.1953 16.5078 41.4766 19.2031 41.4766 22.125C41.4766 24.0469 41.7812 25.875 42.3906 27.6094C43.0156 29.3281 43.8594 30.8359 44.9219 32.1328C46 33.4141 47.2344 34.5234 48.625 35.4609C50.0312 36.3984 51.5391 37.1094 53.1484 37.5938C54.7734 38.0781 56.4219 38.3203 58.0938 38.3203C59.9375 38.3203 61.6875 37.9688 63.3438 37.2656V39C61.6094 39.6094 59.8281 39.9141 58 39.9141C56.1094 39.9141 54.2656 39.6484 52.4688 39.1172C50.6875 38.5859 49.0312 37.8047 47.5 36.7734C45.9844 35.7266 44.6484 34.5 43.4922 33.0938C42.3359 31.6719 41.4297 30.0156 40.7734 28.125C40.1172 26.2344 39.7891 24.2344 39.7891 22.125C39.7891 19.7031 40.2422 17.3984 41.1484 15.2109C42.0703 13.0078 43.3203 11.1094 44.8984 9.51562C46.4922 7.90625 48.4141 6.63281 50.6641 5.69531C52.9297 4.74219 55.3359 4.26562 57.8828 4.26562C60.4766 4.26562 62.9141 4.70312 65.1953 5.57812C67.4766 6.45312 69.4453 7.67188 71.1016 9.23438C72.7578 10.7812 74.0625 12.6875 75.0156 14.9531C75.9688 17.2188 76.4453 19.6875 76.4453 22.3594ZM90.7422 28.875V15.375C90.7422 15.375 93.8594 15.375 100.094 15.375C101.828 15.375 103.312 16.0312 104.547 17.3438C105.797 18.6562 106.422 20.2344 106.422 22.0781C106.422 23.9844 105.805 25.5938 104.57 26.9062C103.336 28.2188 101.844 28.875 100.094 28.875H90.7422ZM92.4297 27.1875H100.094C101.359 27.1875 102.438 26.6953 103.328 25.7109C104.234 24.7266 104.688 23.5156 104.688 22.0781C104.688 20.7031 104.234 19.5234 103.328 18.5391C102.438 17.5547 101.359 17.0625 100.094 17.0625H92.4297V27.1875ZM89.0547 30.5625H100.094C102.312 30.5625 104.211 29.7422 105.789 28.1016C107.367 26.4453 108.156 24.4375 108.156 22.0781C108.156 19.7656 107.359 17.7891 105.766 16.1484C104.188 14.5078 102.297 13.6875 100.094 13.6875H89.0547V30.5625ZM87.3672 32.25V12H100.094C102.766 12 105.062 12.9922 106.984 14.9766C108.922 16.9453 109.891 19.3125 109.891 22.0781C109.891 24.9062 108.93 27.3125 107.008 29.2969C105.086 31.2656 102.781 32.25 100.094 32.25H87.3672ZM85.6797 33.9375H100.094C102.156 33.9375 104.07 33.4141 105.836 32.3672C107.602 31.3203 109.008 29.8828 110.055 28.0547C111.102 26.2266 111.625 24.2344 111.625 22.0781C111.625 19.9688 111.102 18.0078 110.055 16.1953C109.008 14.3828 107.594 12.9531 105.812 11.9062C104.047 10.8438 102.141 10.3125 100.094 10.3125H85.6797V33.9375ZM83.9922 35.625V8.625H100.094C102.453 8.625 104.648 9.22656 106.68 10.4297C108.727 11.6328 110.352 13.2734 111.555 15.3516C112.758 17.4141 113.359 19.6562 113.359 22.0781C113.359 24.5312 112.758 26.8047 111.555 28.8984C110.352 30.9766 108.727 32.6172 106.68 33.8203C104.648 35.0234 102.453 35.625 100.094 35.625H83.9922ZM82.3047 37.3125H100.094C102.766 37.3125 105.25 36.6406 107.547 35.2969C109.844 33.9375 111.672 32.0859 113.031 29.7422C114.406 27.3984 115.094 24.8438 115.094 22.0781C115.094 19.3594 114.406 16.8359 113.031 14.5078C111.672 12.1641 109.836 10.3203 107.523 8.97656C105.227 7.61719 102.75 6.9375 100.094 6.9375H82.3047V37.3125ZM100.094 39H80.6172V5.25H100.094C103.062 5.25 105.828 6.00781 108.391 7.52344C110.969 9.02344 113.016 11.0703 114.531 13.6641C116.062 16.2422 116.828 19.0469 116.828 22.0781C116.828 24.375 116.375 26.5703 115.469 28.6641C114.578 30.7578 113.375 32.5625 111.859 34.0781C110.359 35.5781 108.578 36.7734 106.516 37.6641C104.453 38.5547 102.312 39 100.094 39ZM130.727 5.25H132.414V39H130.727V5.25ZM127.352 5.25H129.039V39H127.352V5.25ZM123.977 5.25H125.664V39H123.977V5.25ZM120.602 5.25H122.289V39H120.602V5.25ZM149.711 17.3672C148.398 18.6797 147.742 20.2656 147.742 22.125C147.742 23.9844 148.398 25.5781 149.711 26.9062C151.039 28.2188 152.633 28.875 154.492 28.875C156.352 28.875 157.938 28.2188 159.25 26.9062C160.578 25.5781 161.242 23.9844 161.242 22.125C161.242 20.2656 160.578 18.6797 159.25 17.3672C157.938 16.0391 156.352 15.375 154.492 15.375C152.633 15.375 151.039 16.0391 149.711 17.3672ZM148.516 28.1016C146.875 26.4453 146.055 24.4531 146.055 22.125C146.055 19.7969 146.875 17.8125 148.516 16.1719C150.172 14.5156 152.164 13.6875 154.492 13.6875C156.82 13.6875 158.805 14.5156 160.445 16.1719C162.102 17.8125 162.93 19.7969 162.93 22.125C162.93 24.4531 162.102 26.4453 160.445 28.1016C158.805 29.7422 156.82 30.5625 154.492 30.5625C152.164 30.5625 150.172 29.7422 148.516 28.1016ZM147.32 14.9766C145.352 16.9609 144.367 19.3438 144.367 22.125C144.367 24.9062 145.352 27.2891 147.32 29.2734C149.305 31.2578 151.695 32.25 154.492 32.25C157.289 32.25 159.672 31.2578 161.641 29.2734C163.625 27.2891 164.617 24.9062 164.617 22.125C164.617 19.3438 163.625 16.9609 161.641 14.9766C159.672 12.9922 157.289 12 154.492 12C151.695 12 149.305 12.9922 147.32 14.9766ZM144.25 28.0547C143.203 26.2422 142.68 24.2656 142.68 22.125C142.68 19.9844 143.203 18.0078 144.25 16.1953C145.312 14.3828 146.75 12.9531 148.562 11.9062C150.375 10.8438 152.352 10.3125 154.492 10.3125C156.633 10.3125 158.609 10.8438 160.422 11.9062C162.234 12.9531 163.664 14.3828 164.711 16.1953C165.773 18.0078 166.305 19.9844 166.305 22.125C166.305 24.2656 165.773 26.2422 164.711 28.0547C163.664 29.8672 162.234 31.3047 160.422 32.3672C158.609 33.4141 156.633 33.9375 154.492 33.9375C152.352 33.9375 150.375 33.4141 148.562 32.3672C146.75 31.3047 145.312 29.8672 144.25 28.0547ZM142.047 16.8984C141.344 18.5547 140.992 20.2969 140.992 22.125C140.992 23.9531 141.344 25.7031 142.047 27.375C142.766 29.0312 143.727 30.4688 144.93 31.6875C146.148 32.8906 147.586 33.8516 149.242 34.5703C150.914 35.2734 152.664 35.625 154.492 35.625C156.32 35.625 158.062 35.2734 159.719 34.5703C161.391 33.8516 162.828 32.8906 164.031 31.6875C165.25 30.4688 166.211 29.0312 166.914 27.375C167.633 25.7031 167.992 23.9531 167.992 22.125C167.992 20.2969 167.633 18.5547 166.914 16.8984C166.211 15.2266 165.25 13.7891 164.031 12.5859C162.828 11.3672 161.391 10.4062 159.719 9.70312C158.062 8.98438 156.32 8.625 154.492 8.625C152.664 8.625 150.914 8.98438 149.242 9.70312C147.586 10.4062 146.148 11.3672 144.93 12.5859C143.727 13.7891 142.766 15.2266 142.047 16.8984ZM140.5 28.0312C139.703 26.1562 139.305 24.1875 139.305 22.125C139.305 20.0625 139.703 18.0938 140.5 16.2188C141.312 14.3438 142.391 12.7344 143.734 11.3906C145.094 10.0312 146.711 8.95312 148.586 8.15625C150.461 7.34375 152.43 6.9375 154.492 6.9375C156.555 6.9375 158.523 7.34375 160.398 8.15625C162.273 8.95312 163.883 10.0312 165.227 11.3906C166.586 12.7344 167.664 14.3438 168.461 16.2188C169.273 18.0938 169.68 20.0625 169.68 22.125C169.68 24.1875 169.273 26.1562 168.461 28.0312C167.664 29.9062 166.586 31.5234 165.227 32.8828C163.883 34.2266 162.273 35.3047 160.398 36.1172C158.523 36.9141 156.555 37.3125 154.492 37.3125C152.43 37.3125 150.461 36.9141 148.586 36.1172C146.711 35.3047 145.094 34.2266 143.734 32.8828C142.391 31.5234 141.312 29.9062 140.5 28.0312ZM138.953 15.5859C138.062 17.6641 137.617 19.8438 137.617 22.125C137.617 24.4062 138.062 26.5938 138.953 28.6875C139.844 30.7656 141.039 32.5625 142.539 34.0781C144.055 35.5781 145.852 36.7734 147.93 37.6641C150.023 38.5547 152.211 39 154.492 39C156.773 39 158.953 38.5547 161.031 37.6641C163.125 36.7734 164.922 35.5781 166.422 34.0781C167.938 32.5625 169.141 30.7656 170.031 28.6875C170.922 26.5938 171.367 24.4062 171.367 22.125C171.367 19.8438 170.922 17.6641 170.031 15.5859C169.141 13.4922 167.938 11.6953 166.422 10.1953C164.922 8.67969 163.125 7.47656 161.031 6.58594C158.953 5.69531 156.773 5.25 154.492 5.25C152.211 5.25 150.023 5.69531 147.93 6.58594C145.852 7.47656 144.055 8.67969 142.539 10.1953C141.039 11.6953 139.844 13.4922 138.953 15.5859ZM137.406 29.3438C136.422 27.0469 135.93 24.6406 135.93 22.125C135.93 19.6094 136.422 17.2109 137.406 14.9297C138.391 12.6328 139.711 10.6562 141.367 9C143.023 7.34375 144.992 6.02344 147.273 5.03906C149.57 4.05469 151.977 3.5625 154.492 3.5625C157.008 3.5625 159.406 4.05469 161.688 5.03906C163.984 6.02344 165.961 7.34375 167.617 9C169.273 10.6562 170.594 12.6328 171.578 14.9297C172.562 17.2109 173.055 19.6094 173.055 22.125C173.055 24.6406 172.562 27.0469 171.578 29.3438C170.594 31.625 169.273 33.5938 167.617 35.25C165.961 36.9062 163.984 38.2266 161.688 39.2109C159.406 40.1953 157.008 40.6875 154.492 40.6875C151.977 40.6875 149.57 40.1953 147.273 39.2109C144.992 38.2266 143.023 36.9062 141.367 35.25C139.711 33.5938 138.391 31.625 137.406 29.3438Z" fill="#83580B"/>
<path d="M189.742 17.3672C188.43 18.6797 187.773 20.2656 187.773 22.125C187.773 23.9844 188.43 25.5781 189.742 26.9062C191.07 28.2188 192.664 28.875 194.523 28.875C196.383 28.875 197.969 28.2188 199.281 26.9062C200.609 25.5781 201.273 23.9844 201.273 22.125C201.273 20.2656 200.609 18.6797 199.281 17.3672C197.969 16.0391 196.383 15.375 194.523 15.375C192.664 15.375 191.07 16.0391 189.742 17.3672ZM188.547 28.1016C186.906 26.4453 186.086 24.4531 186.086 22.125C186.086 19.7969 186.906 17.8125 188.547 16.1719C190.203 14.5156 192.195 13.6875 194.523 13.6875C196.852 13.6875 198.836 14.5156 200.477 16.1719C202.133 17.8125 202.961 19.7969 202.961 22.125C202.961 24.4531 202.133 26.4453 200.477 28.1016C198.836 29.7422 196.852 30.5625 194.523 30.5625C192.195 30.5625 190.203 29.7422 188.547 28.1016ZM187.352 14.9766C185.383 16.9609 184.398 19.3438 184.398 22.125C184.398 24.9062 185.383 27.2891 187.352 29.2734C189.336 31.2578 191.727 32.25 194.523 32.25C197.32 32.25 199.703 31.2578 201.672 29.2734C203.656 27.2891 204.648 24.9062 204.648 22.125C204.648 19.3438 203.656 16.9609 201.672 14.9766C199.703 12.9922 197.32 12 194.523 12C191.727 12 189.336 12.9922 187.352 14.9766ZM184.281 28.0547C183.234 26.2422 182.711 24.2656 182.711 22.125C182.711 19.9844 183.234 18.0078 184.281 16.1953C185.344 14.3828 186.781 12.9531 188.594 11.9062C190.406 10.8438 192.383 10.3125 194.523 10.3125C196.664 10.3125 198.641 10.8438 200.453 11.9062C202.266 12.9531 203.695 14.3828 204.742 16.1953C205.805 18.0078 206.336 19.9844 206.336 22.125C206.336 24.2656 205.805 26.2422 204.742 28.0547C203.695 29.8672 202.266 31.3047 200.453 32.3672C198.641 33.4141 196.664 33.9375 194.523 33.9375C192.383 33.9375 190.406 33.4141 188.594 32.3672C186.781 31.3047 185.344 29.8672 184.281 28.0547ZM182.078 16.8984C181.375 18.5547 181.023 20.2969 181.023 22.125C181.023 23.9531 181.375 25.7031 182.078 27.375C182.797 29.0312 183.758 30.4688 184.961 31.6875C186.18 32.8906 187.617 33.8516 189.273 34.5703C190.945 35.2734 192.695 35.625 194.523 35.625C196.352 35.625 198.094 35.2734 199.75 34.5703C201.422 33.8516 202.859 32.8906 204.062 31.6875C205.281 30.4688 206.242 29.0312 206.945 27.375C207.664 25.7031 208.023 23.9531 208.023 22.125C208.023 20.2969 207.664 18.5547 206.945 16.8984C206.242 15.2266 205.281 13.7891 204.062 12.5859C202.859 11.3672 201.422 10.4062 199.75 9.70312C198.094 8.98438 196.352 8.625 194.523 8.625C192.695 8.625 190.945 8.98438 189.273 9.70312C187.617 10.4062 186.18 11.3672 184.961 12.5859C183.758 13.7891 182.797 15.2266 182.078 16.8984ZM180.531 28.0312C179.734 26.1562 179.336 24.1875 179.336 22.125C179.336 20.0625 179.734 18.0938 180.531 16.2188C181.344 14.3438 182.422 12.7344 183.766 11.3906C185.125 10.0312 186.742 8.95312 188.617 8.15625C190.492 7.34375 192.461 6.9375 194.523 6.9375C196.586 6.9375 198.555 7.34375 200.43 8.15625C202.305 8.95312 203.914 10.0312 205.258 11.3906C206.617 12.7344 207.695 14.3438 208.492 16.2188C209.305 18.0938 209.711 20.0625 209.711 22.125C209.711 24.1875 209.305 26.1562 208.492 28.0312C207.695 29.9062 206.617 31.5234 205.258 32.8828C203.914 34.2266 202.305 35.3047 200.43 36.1172C198.555 36.9141 196.586 37.3125 194.523 37.3125C192.461 37.3125 190.492 36.9141 188.617 36.1172C186.742 35.3047 185.125 34.2266 183.766 32.8828C182.422 31.5234 181.344 29.9062 180.531 28.0312ZM178.984 15.5859C178.094 17.6641 177.648 19.8438 177.648 22.125C177.648 24.4062 178.094 26.5938 178.984 28.6875C179.875 30.7656 181.07 32.5625 182.57 34.0781C184.086 35.5781 185.883 36.7734 187.961 37.6641C190.055 38.5547 192.242 39 194.523 39C196.805 39 198.984 38.5547 201.062 37.6641C203.156 36.7734 204.953 35.5781 206.453 34.0781C207.969 32.5625 209.172 30.7656 210.062 28.6875C210.953 26.5938 211.398 24.4062 211.398 22.125C211.398 19.8438 210.953 17.6641 210.062 15.5859C209.172 13.4922 207.969 11.6953 206.453 10.1953C204.953 8.67969 203.156 7.47656 201.062 6.58594C198.984 5.69531 196.805 5.25 194.523 5.25C192.242 5.25 190.055 5.69531 187.961 6.58594C185.883 7.47656 184.086 8.67969 182.57 10.1953C181.07 11.6953 179.875 13.4922 178.984 15.5859ZM177.438 29.3438C176.453 27.0469 175.961 24.6406 175.961 22.125C175.961 19.6094 176.453 17.2109 177.438 14.9297C178.422 12.6328 179.742 10.6562 181.398 9C183.055 7.34375 185.023 6.02344 187.305 5.03906C189.602 4.05469 192.008 3.5625 194.523 3.5625C197.039 3.5625 199.438 4.05469 201.719 5.03906C204.016 6.02344 205.992 7.34375 207.648 9C209.305 10.6562 210.625 12.6328 211.609 14.9297C212.594 17.2109 213.086 19.6094 213.086 22.125C213.086 24.6406 212.594 27.0469 211.609 29.3438C210.625 31.625 209.305 33.5938 207.648 35.25C205.992 36.9062 204.016 38.2266 201.719 39.2109C199.438 40.1953 197.039 40.6875 194.523 40.6875C192.008 40.6875 189.602 40.1953 187.305 39.2109C185.023 38.2266 183.055 36.9062 181.398 35.25C179.742 33.5938 178.422 31.625 177.438 29.3438ZM226.569 17.3672C225.257 18.6797 224.6 20.2656 224.6 22.125C224.6 23.9844 225.257 25.5781 226.569 26.9062C227.897 28.2188 229.491 28.875 231.35 28.875C233.21 28.875 234.796 28.2188 236.108 26.9062C237.436 25.5781 238.1 23.9844 238.1 22.125C238.1 20.2656 237.436 18.6797 236.108 17.3672C234.796 16.0391 233.21 15.375 231.35 15.375C229.491 15.375 227.897 16.0391 226.569 17.3672ZM225.374 28.1016C223.733 26.4453 222.913 24.4531 222.913 22.125C222.913 19.7969 223.733 17.8125 225.374 16.1719C227.03 14.5156 229.022 13.6875 231.35 13.6875C233.678 13.6875 235.663 14.5156 237.303 16.1719C238.96 17.8125 239.788 19.7969 239.788 22.125C239.788 24.4531 238.96 26.4453 237.303 28.1016C235.663 29.7422 233.678 30.5625 231.35 30.5625C229.022 30.5625 227.03 29.7422 225.374 28.1016ZM224.178 14.9766C222.21 16.9609 221.225 19.3438 221.225 22.125C221.225 24.9062 222.21 27.2891 224.178 29.2734C226.163 31.2578 228.553 32.25 231.35 32.25C234.147 32.25 236.53 31.2578 238.499 29.2734C240.483 27.2891 241.475 24.9062 241.475 22.125C241.475 19.3438 240.483 16.9609 238.499 14.9766C236.53 12.9922 234.147 12 231.35 12C228.553 12 226.163 12.9922 224.178 14.9766ZM221.108 28.0547C220.061 26.2422 219.538 24.2656 219.538 22.125C219.538 19.9844 220.061 18.0078 221.108 16.1953C222.171 14.3828 223.608 12.9531 225.421 11.9062C227.233 10.8438 229.21 10.3125 231.35 10.3125C233.491 10.3125 235.467 10.8438 237.28 11.9062C239.092 12.9531 240.522 14.3828 241.569 16.1953C242.632 18.0078 243.163 19.9844 243.163 22.125C243.163 24.2656 242.632 26.2422 241.569 28.0547C240.522 29.8672 239.092 31.3047 237.28 32.3672C235.467 33.4141 233.491 33.9375 231.35 33.9375C229.21 33.9375 227.233 33.4141 225.421 32.3672C223.608 31.3047 222.171 29.8672 221.108 28.0547ZM218.905 16.8984C218.202 18.5547 217.85 20.2969 217.85 22.125C217.85 23.9531 218.202 25.7031 218.905 27.375C219.624 29.0312 220.585 30.4688 221.788 31.6875C223.007 32.8906 224.444 33.8516 226.1 34.5703C227.772 35.2734 229.522 35.625 231.35 35.625C233.178 35.625 234.921 35.2734 236.577 34.5703C238.249 33.8516 239.686 32.8906 240.889 31.6875C242.108 30.4688 243.069 29.0312 243.772 27.375C244.491 25.7031 244.85 23.9531 244.85 22.125C244.85 20.2969 244.491 18.5547 243.772 16.8984C243.069 15.2266 242.108 13.7891 240.889 12.5859C239.686 11.3672 238.249 10.4062 236.577 9.70312C234.921 8.98438 233.178 8.625 231.35 8.625C229.522 8.625 227.772 8.98438 226.1 9.70312C224.444 10.4062 223.007 11.3672 221.788 12.5859C220.585 13.7891 219.624 15.2266 218.905 16.8984ZM217.358 28.0312C216.561 26.1562 216.163 24.1875 216.163 22.125C216.163 20.0625 216.561 18.0938 217.358 16.2188C218.171 14.3438 219.249 12.7344 220.592 11.3906C221.952 10.0312 223.569 8.95312 225.444 8.15625C227.319 7.34375 229.288 6.9375 231.35 6.9375C233.413 6.9375 235.382 7.34375 237.257 8.15625C239.132 8.95312 240.741 10.0312 242.085 11.3906C243.444 12.7344 244.522 14.3438 245.319 16.2188C246.132 18.0938 246.538 20.0625 246.538 22.125C246.538 24.1875 246.132 26.1562 245.319 28.0312C244.522 29.9062 243.444 31.5234 242.085 32.8828C240.741 34.2266 239.132 35.3047 237.257 36.1172C235.382 36.9141 233.413 37.3125 231.35 37.3125C229.288 37.3125 227.319 36.9141 225.444 36.1172C223.569 35.3047 221.952 34.2266 220.592 32.8828C219.249 31.5234 218.171 29.9062 217.358 28.0312ZM215.811 15.5859C214.921 17.6641 214.475 19.8438 214.475 22.125C214.475 24.4062 214.921 26.5938 215.811 28.6875C216.702 30.7656 217.897 32.5625 219.397 34.0781C220.913 35.5781 222.71 36.7734 224.788 37.6641C226.882 38.5547 229.069 39 231.35 39C233.632 39 235.811 38.5547 237.889 37.6641C239.983 36.7734 241.78 35.5781 243.28 34.0781C244.796 32.5625 245.999 30.7656 246.889 28.6875C247.78 26.5938 248.225 24.4062 248.225 22.125C248.225 19.8438 247.78 17.6641 246.889 15.5859C245.999 13.4922 244.796 11.6953 243.28 10.1953C241.78 8.67969 239.983 7.47656 237.889 6.58594C235.811 5.69531 233.632 5.25 231.35 5.25C229.069 5.25 226.882 5.69531 224.788 6.58594C222.71 7.47656 220.913 8.67969 219.397 10.1953C217.897 11.6953 216.702 13.4922 215.811 15.5859ZM214.264 29.3438C213.28 27.0469 212.788 24.6406 212.788 22.125C212.788 19.6094 213.28 17.2109 214.264 14.9297C215.249 12.6328 216.569 10.6562 218.225 9C219.882 7.34375 221.85 6.02344 224.132 5.03906C226.428 4.05469 228.835 3.5625 231.35 3.5625C233.866 3.5625 236.264 4.05469 238.546 5.03906C240.842 6.02344 242.819 7.34375 244.475 9C246.132 10.6562 247.452 12.6328 248.436 14.9297C249.421 17.2109 249.913 19.6094 249.913 22.125C249.913 24.6406 249.421 27.0469 248.436 29.3438C247.452 31.625 246.132 33.5938 244.475 35.25C242.819 36.9062 240.842 38.2266 238.546 39.2109C236.264 40.1953 233.866 40.6875 231.35 40.6875C228.835 40.6875 226.428 40.1953 224.132 39.2109C221.85 38.2266 219.882 36.9062 218.225 35.25C216.569 33.5938 215.249 31.625 214.264 29.3438Z" fill="#FACF87"/>
</svg>
