<svg width="738" height="605" viewBox="0 0 738 605" fill="none" xmlns="http://www.w3.org/2000/svg">
<path d="M96.5 587H68.5C64.9101 587 62 589.91 62 593.5V598.5C62 602.09 64.9101 605 68.5 605H96.5C100.09 605 103 602.09 103 598.5V593.5C103 589.91 100.09 587 96.5 587Z" fill="#C78E30"/>
<path d="M674.5 587H646.5C642.91 587 640 589.91 640 593.5V598.5C640 602.09 642.91 605 646.5 605H674.5C678.09 605 681 602.09 681 598.5V593.5C681 589.91 678.09 587 674.5 587Z" fill="#C78E30"/>
<path opacity="0.63" d="M127.64 82.14H153.21C155.376 82.146 157.522 82.5528 159.54 83.34V150.87C157.524 151.665 155.377 152.076 153.21 152.08H127.64C122.996 152.069 118.545 150.221 115.26 146.937C111.975 143.654 110.123 139.204 110.11 134.56V99.66C110.123 95.0157 111.975 90.5656 115.26 87.2825C118.545 83.9995 122.996 82.1506 127.64 82.14Z" fill="#FACF87" stroke="#C78E30" stroke-width="2" stroke-miterlimit="10"/>
<path opacity="0.63" d="M609.25 82.14H583.68C581.514 82.146 579.368 82.5528 577.35 83.34V150.87C579.366 151.665 581.513 152.076 583.68 152.08H609.25C613.894 152.069 618.346 150.221 621.63 146.937C624.915 143.654 626.767 139.204 626.78 134.56V99.66C626.767 95.0157 624.915 90.5656 621.63 87.2825C618.346 83.9995 613.894 82.1506 609.25 82.14Z" fill="#FACF87" stroke="#C78E30" stroke-width="2" stroke-miterlimit="10"/>
<path opacity="0.63" d="M544.17 1H192.72C183.928 1.02638 175.504 4.53059 169.287 10.7473C163.071 16.9641 159.566 25.3882 159.54 34.18V159.94C159.566 168.732 163.071 177.156 169.287 183.373C175.504 189.589 183.928 193.094 192.72 193.12H544.17C552.962 193.094 561.386 189.589 567.603 183.373C573.819 177.156 577.324 168.732 577.35 159.94V34.18C577.324 25.3882 573.819 16.9641 567.603 10.7473C561.386 4.53059 552.962 1.02638 544.17 1ZM541.91 170C541.892 176.035 539.485 181.817 535.217 186.084C530.949 190.35 525.165 192.754 519.13 192.77H207.22C201.185 192.754 195.402 190.35 191.133 186.084C186.865 181.817 184.459 176.035 184.44 170V78.31C184.459 72.274 186.864 66.4906 191.133 62.2225C195.401 57.9544 201.184 55.5485 207.22 55.53H213.17C219.09 46.94 230.65 41.1 243.94 41.1C257.23 41.1 268.8 46.94 274.72 55.53H293.37C299.29 46.94 310.85 41.1 324.15 41.1C337.45 41.1 349 46.94 354.92 55.53H373.58C379.49 46.94 391.05 41.1 404.35 41.1C417.65 41.1 429.21 46.94 435.12 55.53H451.92C457.83 46.94 469.39 41.1 482.69 41.1C495.99 41.1 507.55 46.94 513.46 55.53H519.13C525.166 55.5485 530.949 57.9544 535.218 62.2225C539.486 66.4906 541.892 72.274 541.91 78.31V170Z" fill="#FACF87" stroke="#C78E30" stroke-width="2" stroke-miterlimit="10"/>
<path d="M703.91 124.1H33.91C15.7343 124.1 1 138.834 1 157.01V563.09C1 581.266 15.7343 596 33.91 596H703.91C722.086 596 736.82 581.266 736.82 563.09V157.01C736.82 138.834 722.086 124.1 703.91 124.1Z" fill="white" stroke="#C78E30" stroke-width="2" stroke-miterlimit="10"/>
<path d="M702.44 153.23H34.45C27.8225 153.23 22.45 158.603 22.45 165.23V554.28C22.45 560.907 27.8225 566.28 34.45 566.28H702.44C709.067 566.28 714.44 560.907 714.44 554.28V165.23C714.44 158.603 709.067 153.23 702.44 153.23Z" stroke="#C78E30" stroke-width="2" stroke-miterlimit="10"/>
<path d="M623.63 181.92H114.2C96.4938 181.92 82.14 196.274 82.14 213.98V338.25C82.14 355.956 96.4938 370.31 114.2 370.31H623.63C641.336 370.31 655.69 355.956 655.69 338.25V213.98C655.69 196.274 641.336 181.92 623.63 181.92Z" stroke="#C78E30" stroke-width="2" stroke-miterlimit="10"/>
<path d="M604.7 396.42H133.13C104.969 396.42 82.14 419.249 82.14 447.41V486.25C82.14 514.411 104.969 537.24 133.13 537.24H604.7C632.861 537.24 655.69 514.411 655.69 486.25V447.41C655.69 419.249 632.861 396.42 604.7 396.42Z" stroke="#C78E30" stroke-width="2" stroke-miterlimit="10"/>
<path fill-rule="evenodd" clip-rule="evenodd" d="M167.87 423.551C144.678 424.083 126.04 443.05 126.04 466.37C126.04 490.024 145.216 509.2 168.87 509.2C192.524 509.2 211.7 490.024 211.7 466.37C211.7 443.05 193.062 424.083 169.87 423.551V443.05H167.87V423.551ZM168.87 421.54C144.111 421.54 124.04 441.611 124.04 466.37C124.04 491.129 144.111 511.2 168.87 511.2C193.629 511.2 213.7 491.129 213.7 466.37C213.7 441.611 193.629 421.54 168.87 421.54Z" fill="#C78E30"/>
<path fill-rule="evenodd" clip-rule="evenodd" d="M564.22 423.551C541.028 424.083 522.39 443.05 522.39 466.37C522.39 490.024 541.566 509.2 565.22 509.2C588.874 509.2 608.05 490.024 608.05 466.37C608.05 443.05 589.412 424.083 566.22 423.551V443.05H564.22V423.551ZM565.22 421.54C540.461 421.54 520.39 441.611 520.39 466.37C520.39 491.129 540.461 511.2 565.22 511.2C589.979 511.2 610.05 491.129 610.05 466.37C610.05 441.611 589.979 421.54 565.22 421.54Z" fill="#C78E30"/>
<path d="M249.54 514.86C256.493 514.86 262.13 509.223 262.13 502.27C262.13 495.317 256.493 489.68 249.54 489.68C242.587 489.68 236.95 495.317 236.95 502.27C236.95 509.223 242.587 514.86 249.54 514.86Z" fill="white" stroke="#C78E30" stroke-width="2" stroke-miterlimit="10"/>
<path d="M286.84 514.86C293.793 514.86 299.43 509.223 299.43 502.27C299.43 495.317 293.793 489.68 286.84 489.68C279.887 489.68 274.25 495.317 274.25 502.27C274.25 509.223 279.887 514.86 286.84 514.86Z" fill="white" stroke="#C78E30" stroke-width="2" stroke-miterlimit="10"/>
<path d="M320.42 514.86C327.373 514.86 333.01 509.223 333.01 502.27C333.01 495.317 327.373 489.68 320.42 489.68C313.467 489.68 307.83 495.317 307.83 502.27C307.83 509.223 313.467 514.86 320.42 514.86Z" fill="white" stroke="#C78E30" stroke-width="2" stroke-miterlimit="10"/>
<path d="M111.98 181.92V370.31" stroke="#C78E30" stroke-width="2" stroke-miterlimit="10"/>
<path d="M143.69 181.92V370.31" stroke="#C78E30" stroke-width="2" stroke-miterlimit="10"/>
<path d="M175.4 181.92V370.31" stroke="#C78E30" stroke-width="2" stroke-miterlimit="10"/>
<path d="M207.11 181.92V370.31" stroke="#C78E30" stroke-width="2" stroke-miterlimit="10"/>
<path d="M238.81 181.92V370.31" stroke="#C78E30" stroke-width="2" stroke-miterlimit="10"/>
<path d="M270.52 181.92V370.31" stroke="#C78E30" stroke-width="2" stroke-miterlimit="10"/>
<path d="M302.23 181.92V370.31" stroke="#C78E30" stroke-width="2" stroke-miterlimit="10"/>
<path d="M333.94 181.92V370.31" stroke="#C78E30" stroke-width="2" stroke-miterlimit="10"/>
<path d="M365.65 181.92V370.31" stroke="#C78E30" stroke-width="2" stroke-miterlimit="10"/>
<path d="M397.36 181.92V370.31" stroke="#C78E30" stroke-width="2" stroke-miterlimit="10"/>
<path d="M429.06 181.92V370.31" stroke="#C78E30" stroke-width="2" stroke-miterlimit="10"/>
<path d="M460.77 181.92V370.31" stroke="#C78E30" stroke-width="2" stroke-miterlimit="10"/>
<path d="M492.48 181.92V370.31" stroke="#C78E30" stroke-width="2" stroke-miterlimit="10"/>
<path d="M524.19 181.92V370.31" stroke="#C78E30" stroke-width="2" stroke-miterlimit="10"/>
<path d="M555.9 181.92V370.31" stroke="#C78E30" stroke-width="2" stroke-miterlimit="10"/>
<path d="M587.61 181.92V370.31" stroke="#C78E30" stroke-width="2" stroke-miterlimit="10"/>
<path d="M619.32 181.92V370.31" stroke="#C78E30" stroke-width="2" stroke-miterlimit="10"/>
<path d="M236.95 458.44H490.62" stroke="#7A6542" stroke-miterlimit="10"/>
<path d="M320.42 457.51V438.86" stroke="#7A6542" stroke-miterlimit="10"/>
<path d="M328.81 457.97V446.32" stroke="#7A6542" stroke-miterlimit="10"/>
<path d="M337.2 457.97V446.32" stroke="#7A6542" stroke-miterlimit="10"/>
<path d="M345.6 457.97V446.32" stroke="#7A6542" stroke-miterlimit="10"/>
<path d="M353.99 457.97V446.32" stroke="#7A6542" stroke-miterlimit="10"/>
<path d="M362.33 458.42V439.76" stroke="#7A6542" stroke-miterlimit="10"/>
<path d="M370.72 458.88V447.22" stroke="#7A6542" stroke-miterlimit="10"/>
<path d="M379.11 458.88V447.22" stroke="#7A6542" stroke-miterlimit="10"/>
<path d="M387.51 458.88V447.22" stroke="#7A6542" stroke-miterlimit="10"/>
<path d="M395.9 458.88V447.22" stroke="#7A6542" stroke-miterlimit="10"/>
<path d="M404.29 458.42V439.76" stroke="#7A6542" stroke-miterlimit="10"/>
<path d="M412.69 458.88V447.22" stroke="#7A6542" stroke-miterlimit="10"/>
<path d="M421.08 458.88V447.22" stroke="#7A6542" stroke-miterlimit="10"/>
<path d="M429.47 458.88V447.22" stroke="#7A6542" stroke-miterlimit="10"/>
<path d="M437.87 458.88V447.22" stroke="#7A6542" stroke-miterlimit="10"/>
<path d="M447.19 458.42V439.76" stroke="#7A6542" stroke-miterlimit="10"/>
<path d="M455.59 458.88V447.22" stroke="#7A6542" stroke-miterlimit="10"/>
<path d="M463.98 458.88V447.22" stroke="#7A6542" stroke-miterlimit="10"/>
<path d="M472.37 458.88V447.22" stroke="#7A6542" stroke-miterlimit="10"/>
<path d="M480.77 458.88V447.22" stroke="#7A6542" stroke-miterlimit="10"/>
<path d="M286.79 457.48V438.83" stroke="#7A6542" stroke-miterlimit="10"/>
<path d="M295.18 457.95V446.29" stroke="#7A6542" stroke-miterlimit="10"/>
<path d="M303.57 457.95V446.29" stroke="#7A6542" stroke-miterlimit="10"/>
<path d="M311.97 457.95V446.29" stroke="#7A6542" stroke-miterlimit="10"/>
<path d="M320.36 457.95V446.29" stroke="#7A6542" stroke-miterlimit="10"/>
<path d="M245.75 458.42V439.76" stroke="#7A6542" stroke-miterlimit="10"/>
<path d="M254.15 458.88V447.22" stroke="#7A6542" stroke-miterlimit="10"/>
<path d="M262.54 458.88V447.22" stroke="#7A6542" stroke-miterlimit="10"/>
<path d="M270.93 458.88V447.22" stroke="#7A6542" stroke-miterlimit="10"/>
<path d="M279.33 458.88V447.22" stroke="#7A6542" stroke-miterlimit="10"/>
<path d="M362.38 458.44V431.4" stroke="#FF3506" stroke-width="2" stroke-miterlimit="10"/>
<path opacity="0.77" d="M478.62 424.4H248.95C242.323 424.4 236.95 429.773 236.95 436.4V456.23C236.95 462.857 242.323 468.23 248.95 468.23H478.62C485.247 468.23 490.62 462.857 490.62 456.23V436.4C490.62 429.773 485.247 424.4 478.62 424.4Z" fill="#C78E30"/>
<path d="M172.13 359.12C217.716 359.12 254.67 322.166 254.67 276.58C254.67 230.994 217.716 194.04 172.13 194.04C126.544 194.04 89.59 230.994 89.59 276.58C89.59 322.166 126.544 359.12 172.13 359.12Z" stroke="#C78E30" stroke-width="2" stroke-miterlimit="10"/>
<path d="M564.76 359.12C610.346 359.12 647.3 322.166 647.3 276.58C647.3 230.994 610.346 194.04 564.76 194.04C519.174 194.04 482.22 230.994 482.22 276.58C482.22 322.166 519.174 359.12 564.76 359.12Z" stroke="#C78E30" stroke-width="2" stroke-miterlimit="10"/>
<path d="M448.77 222.96H282.52C275.893 222.96 270.52 228.333 270.52 234.96V291.16C270.52 297.787 275.893 303.16 282.52 303.16H448.77C455.397 303.16 460.77 297.787 460.77 291.16V234.96C460.77 228.333 455.397 222.96 448.77 222.96Z" fill="#AD7A26"/>
</svg>
