<svg width="24" height="44" viewBox="0 0 24 44" fill="none" xmlns="http://www.w3.org/2000/svg">
<path d="M2.70288 44C2.16878 44 1.63382 43.7989 1.22218 43.3954C0.388157 42.5777 0.374838 41.2388 1.19253 40.4044L18.857 22.3867C19.1225 22.116 19.1595 21.8028 19.1578 21.6399C19.156 21.4771 19.1131 21.1643 18.8419 20.8991L1.22261 3.63215C0.388159 2.81446 0.374838 1.47555 1.1921 0.641098C2.0098 -0.193356 3.34827 -0.207104 4.18316 0.610592L21.8025 17.878C22.8105 18.8659 23.373 20.1867 23.3872 21.5978C23.4014 23.0089 22.8651 24.3409 21.8773 25.3486L4.21324 43.3658C3.79902 43.7882 3.25117 44 2.70288 44Z" fill="#C8B8A1" fill-opacity="0.51"/>
</svg>
